<svg xmlns="http://www.w3.org/2000/svg" style="&#10;    fill: rebeccapurple;&#10;">
    <symbol id="a" viewBox="0 0 38 38">
        <path d="M21.585 1.86C20.844.326 19.764 0 18.991 0c-.773 0-1.849.321-2.59 1.837L.33 34.027a2.77 2.77 0 0 0-.33 1.3c0 .737.307 1.406.89 1.922.56.498 1.212.751 1.94.751 1.034 0 1.875-.53 2.358-1.489l4.678-9.36H28.13l4.678 9.36c.484.96 1.329 1.489 2.386 1.489.705 0 1.352-.249 1.912-.742.588-.516.895-1.176.895-1.91 0-.456-.127-.9-.339-1.266L21.585 1.86ZM25.4 21.72H12.582l6.422-12.84 6.396 12.84Z"/>
    </symbol>

    <symbol id="app-android" viewBox="0 0 127 42">
        <path d="M63.697 22.926c-2.578 0-4.68 1.968-4.68 4.679 0 2.693 2.102 4.678 4.68 4.678 2.58 0 4.681-1.985 4.681-4.678 0-2.71-2.102-4.679-4.68-4.679Zm0 7.515c-1.413 0-2.63-1.169-2.63-2.835 0-1.684 1.218-2.836 2.63-2.836 1.413 0 2.631 1.152 2.631 2.836 0 1.665-1.218 2.835-2.63 2.835Zm-10.21-7.515c-2.58 0-4.68 1.968-4.68 4.679 0 2.693 2.1 4.678 4.68 4.678 2.579 0 4.68-1.985 4.68-4.678 0-2.71-2.101-4.679-4.68-4.679Zm0 7.515c-1.414 0-2.632-1.169-2.632-2.835 0-1.684 1.22-2.836 2.631-2.836 1.413 0 2.631 1.152 2.631 2.836.002 1.665-1.218 2.835-2.63 2.835Zm-12.145-6.078v1.984h4.733c-.141 1.117-.512 1.932-1.077 2.498-.689.691-1.767 1.453-3.656 1.453-2.914 0-5.192-2.357-5.192-5.28 0-2.925 2.278-5.282 5.192-5.282 1.572 0 2.72.62 3.567 1.418l1.395-1.4c-1.184-1.134-2.755-2.002-4.962-2.002-3.992 0-7.348 3.26-7.348 7.265s3.356 7.266 7.348 7.266c2.154 0 3.78-.71 5.05-2.039 1.307-1.31 1.714-3.154 1.714-4.643 0-.46-.035-.885-.107-1.24h-6.657v.002Zm49.67 1.54c-.388-1.044-1.572-2.977-3.991-2.977-2.402 0-4.398 1.897-4.398 4.679 0 2.622 1.978 4.678 4.627 4.678 2.137 0 3.373-1.311 3.886-2.074l-1.59-1.063c-.529.78-1.253 1.293-2.296 1.293-1.041 0-1.784-.478-2.26-1.418l6.234-2.587-.212-.53Zm-6.358 1.56c-.053-1.808 1.396-2.728 2.438-2.728.813 0 1.501.408 1.731.992l-4.169 1.737ZM79.586 32h2.048V18.25h-2.048V32Zm-3.357-8.028h-.07c-.46-.55-1.343-1.046-2.455-1.046-2.332 0-4.468 2.056-4.468 4.697 0 2.623 2.136 4.66 4.468 4.66 1.113 0 1.995-.495 2.455-1.062h.07v.674c0 1.79-.954 2.746-2.49 2.746-1.254 0-2.031-.903-2.35-1.665l-1.783.745c.512 1.24 1.872 2.764 4.133 2.764 2.402 0 4.434-1.418 4.434-4.874v-8.4H76.23v.761h-.001Zm-2.348 6.47c-1.413 0-2.596-1.189-2.596-2.819 0-1.649 1.183-2.853 2.596-2.853 1.394 0 2.49 1.204 2.49 2.853 0 1.63-1.096 2.818-2.49 2.818Zm26.728-12.193h-4.901V32h2.044v-5.21h2.856c2.268 0 4.497-1.646 4.497-4.27 0-2.623-2.228-4.271-4.496-4.271Zm.053 6.628h-2.91v-4.714h2.91c1.529 0 2.398 1.27 2.398 2.357 0 1.065-.869 2.357-2.398 2.357Zm12.643-1.975c-1.481 0-3.015.654-3.65 2.105l1.815.76c.389-.76 1.112-1.008 1.87-1.008 1.058 0 2.133.637 2.151 1.769v.142c-.371-.213-1.165-.53-2.134-.53-1.957 0-3.95 1.078-3.95 3.095 0 1.84 1.605 3.025 3.403 3.025 1.375 0 2.134-.62 2.609-1.346h.071v1.062h1.975v-5.272c.001-2.44-1.817-3.802-4.16-3.802Zm-.248 7.536c-.669 0-1.604-.336-1.604-1.168 0-1.062 1.164-1.469 2.17-1.469.897 0 1.322.195 1.868.46-.159 1.275-1.252 2.177-2.434 2.177Zm11.602-7.236-2.345 5.962h-.07l-2.434-5.962h-2.204l3.65 8.333-2.081 4.635h2.134l5.625-12.968h-2.275ZM106.235 32h2.044V18.25h-2.044V32ZM40.984 10.267c0 .922-.272 1.656-.817 2.204-.618.65-1.425.976-2.416.976-.95 0-1.757-.33-2.42-.99-.665-.66-.997-1.48-.997-2.456 0-.978.332-1.796.996-2.456.664-.661 1.472-.991 2.421-.991.471 0 .922.092 1.35.276.428.185.772.43 1.028.737l-.578.58c-.435-.522-1.035-.783-1.801-.783-.693 0-1.291.245-1.797.733-.505.488-.757 1.123-.757 1.903s.252 1.415.757 1.903a2.498 2.498 0 0 0 1.797.733c.735 0 1.347-.246 1.837-.737.318-.32.502-.766.552-1.337H37.75V9.77h3.187c.033.173.047.339.047.498ZM46.038 7.51h-2.995v2.093h2.701v.793h-2.7v2.092h2.994v.812h-3.84V6.7h3.84v.81ZM49.602 13.3h-.845V7.51h-1.838V6.7h4.52v.81h-1.837v5.79ZM54.71 13.3V6.7h.845v6.6h-.845ZM59.303 13.3h-.845V7.51h-1.837V6.7h4.52v.81h-1.838v5.79ZM69.697 12.447c-.647.667-1.45 1-2.412 1-.961 0-1.765-.333-2.41-1-.647-.666-.97-1.482-.97-2.447 0-.965.323-1.78.97-2.447.645-.667 1.449-1.001 2.41-1.001.956 0 1.759.335 2.408 1.005.649.67.973 1.484.973 2.443 0 .965-.323 1.78-.969 2.447Zm-4.199-.553a2.408 2.408 0 0 0 1.787.742 2.41 2.41 0 0 0 1.787-.742c.487-.495.731-1.126.731-1.894s-.244-1.4-.73-1.894a2.407 2.407 0 0 0-1.788-.742c-.705 0-1.3.248-1.787.742-.485.495-.73 1.126-.73 1.894s.245 1.4.73 1.894ZM71.852 13.3V6.7h1.029l3.197 5.134h.036l-.037-1.272V6.7h.846v6.6h-.883l-3.345-5.383h-.036l.036 1.271V13.3h-.843Z"/>
        <path d="M.156 7.715c-.143.303-.222.68-.222 1.122v24.328c0 .443.08.82.223 1.123L13.397 21 .157 7.715ZM.85 35.01c.495.236 1.152.178 1.87-.23l15.565-8.875-4.181-4.195-13.254 13.3Zm18.336-9.617 4.913-2.801c1.532-.875 1.532-2.304 0-3.177l-4.915-2.803-4.374 4.39 4.376 4.39Zm-.903-9.294L2.72 7.225c-.718-.41-1.375-.467-1.87-.231l13.254 13.298 4.18-4.194Z"/>
    </symbol>

    <symbol id="app-apple" viewBox="0 0 111 42">
        <path d="M79.678 20.121v2.52h-1.58v1.653h1.58v5.615c0 1.918.868 2.685 3.05 2.685a6.34 6.34 0 0 0 1.068-.1v-1.635c-.274.027-.447.046-.748.046-.977 0-1.407-.457-1.407-1.498v-5.113h2.155V22.64h-2.155v-2.52h-1.963ZM89.356 32.73c2.903 0 4.684-1.944 4.684-5.167 0-3.205-1.79-5.16-4.684-5.16-2.904 0-4.694 1.955-4.694 5.16 0 3.223 1.78 5.168 4.694 5.168Zm0-1.743c-1.708 0-2.667-1.251-2.667-3.424 0-2.155.96-3.415 2.667-3.415 1.698 0 2.666 1.26 2.666 3.415 0 2.164-.968 3.424-2.666 3.424ZM95.563 32.539h1.963v-5.871c0-1.397 1.05-2.338 2.539-2.338.347 0 .931.064 1.095.119v-1.936c-.21-.055-.584-.082-.876-.082-1.297 0-2.402.712-2.685 1.69h-.146v-1.525h-1.89v9.943ZM106.035 24.075c1.452 0 2.401 1.013 2.447 2.575h-5.022c.109-1.553 1.123-2.575 2.575-2.575Zm2.438 5.78c-.366.776-1.178 1.205-2.365 1.205-1.571 0-2.584-1.105-2.648-2.849v-.11h7.021v-.684c0-3.123-1.67-5.013-4.437-5.013-2.803 0-4.584 2.018-4.584 5.195 0 3.178 1.744 5.132 4.593 5.132 2.274 0 3.862-1.096 4.31-2.877h-1.89ZM66.804 28.867c.152 2.442 2.187 4.003 5.215 4.003 3.237 0 5.262-1.637 5.262-4.25 0-2.053-1.155-3.188-3.956-3.841l-1.505-.37c-1.779-.416-2.498-.974-2.498-1.949 0-1.23 1.117-2.035 2.792-2.035 1.59 0 2.687.786 2.886 2.044h2.063c-.123-2.3-2.148-3.918-4.921-3.918-2.981 0-4.968 1.619-4.968 4.05 0 2.007 1.126 3.2 3.596 3.777l1.76.426c1.808.426 2.603 1.05 2.603 2.091 0 1.212-1.25 2.092-2.953 2.092-1.827 0-3.095-.823-3.275-2.12h-2.1ZM46.468 22.431c-1.351 0-2.52.676-3.122 1.808H43.2v-1.643h-1.89v13.248h1.962v-4.812h.156c.52 1.05 1.643 1.671 3.059 1.671 2.51 0 4.108-1.981 4.108-5.14 0-3.16-1.597-5.132-4.127-5.132Zm-.557 8.51c-1.643 0-2.675-1.296-2.675-3.37 0-2.081 1.032-3.378 2.684-3.378 1.662 0 2.658 1.27 2.658 3.37 0 2.109-.996 3.378-2.667 3.378ZM57.465 22.431c-1.352 0-2.52.676-3.123 1.808h-.146v-1.643h-1.89v13.248h1.963v-4.812h.155c.52 1.05 1.644 1.671 3.06 1.671 2.51 0 4.108-1.981 4.108-5.14 0-3.16-1.598-5.132-4.127-5.132Zm-.557 8.51c-1.644 0-2.675-1.296-2.675-3.37 0-2.081 1.031-3.378 2.684-3.378 1.662 0 2.657 1.27 2.657 3.37 0 2.109-.995 3.378-2.666 3.378ZM37.787 32.539h2.253l-4.931-13.656h-2.28l-4.931 13.656h2.176l1.259-3.625h5.205l1.25 3.625ZM33.86 21.362h.16l1.978 5.773h-4.126l1.988-5.773ZM29.216 8.582v6.588h2.378c1.963 0 3.1-1.21 3.1-3.315 0-2.072-1.146-3.273-3.1-3.273h-2.378Zm1.022.931h1.242c1.365 0 2.173.868 2.173 2.356 0 1.511-.794 2.37-2.173 2.37h-1.242V9.513ZM38.176 15.266c1.452 0 2.342-.973 2.342-2.584 0-1.603-.895-2.58-2.342-2.58-1.452 0-2.347.977-2.347 2.58 0 1.611.89 2.584 2.347 2.584Zm0-.872c-.854 0-1.333-.626-1.333-1.712 0-1.078.48-1.708 1.333-1.708.85 0 1.333.63 1.333 1.708 0 1.082-.484 1.712-1.333 1.712ZM48.1 10.198h-.982l-.886 3.794h-.078l-1.022-3.794h-.94l-1.023 3.794h-.073l-.89-3.794h-.996l1.37 4.972h1.009l1.022-3.662h.078l1.027 3.662h1.018l1.365-4.972ZM49.23 15.17h.981v-2.908c0-.776.461-1.26 1.187-1.26s1.073.397 1.073 1.196v2.972h.982V11.95c0-1.182-.612-1.849-1.721-1.849-.75 0-1.242.334-1.484.886h-.073v-.79h-.945v4.972ZM54.999 15.17h.981V8.258H55v6.912ZM59.672 15.266c1.452 0 2.342-.973 2.342-2.584 0-1.603-.895-2.58-2.342-2.58-1.452 0-2.347.977-2.347 2.58 0 1.611.89 2.584 2.347 2.584Zm0-.872c-.854 0-1.333-.626-1.333-1.712 0-1.078.48-1.708 1.333-1.708.849 0 1.333.63 1.333 1.708 0 1.082-.484 1.712-1.333 1.712ZM64.939 14.426c-.535 0-.923-.26-.923-.708 0-.438.31-.671.995-.717l1.215-.077v.415c0 .617-.548 1.087-1.287 1.087Zm-.252.826c.653 0 1.197-.283 1.493-.78h.078v.698h.945v-3.397c0-1.05-.703-1.67-1.95-1.67-1.127 0-1.93.547-2.031 1.4h.95c.11-.35.488-.552 1.036-.552.671 0 1.018.297 1.018.822v.43l-1.347.077c-1.182.073-1.849.589-1.849 1.484 0 .908.699 1.488 1.657 1.488ZM70.534 15.252c.685 0 1.264-.324 1.561-.867h.078v.785h.94V8.258h-.981v2.73h-.073c-.27-.548-.845-.872-1.525-.872-1.256 0-2.064.995-2.064 2.566 0 1.575.8 2.57 2.064 2.57Zm.278-4.255c.822 0 1.338.653 1.338 1.69 0 1.04-.511 1.684-1.338 1.684-.83 0-1.328-.635-1.328-1.69 0-1.045.502-1.684 1.328-1.684ZM79.478 15.266c1.452 0 2.343-.973 2.343-2.584 0-1.603-.895-2.58-2.343-2.58-1.451 0-2.346.977-2.346 2.58 0 1.611.89 2.584 2.346 2.584Zm0-.872c-.853 0-1.333-.626-1.333-1.712 0-1.078.48-1.708 1.334-1.708.849 0 1.333.63 1.333 1.708 0 1.082-.484 1.712-1.334 1.712ZM83.12 15.17h.981v-2.908c0-.776.462-1.26 1.187-1.26.726 0 1.073.397 1.073 1.196v2.972h.982V11.95c0-1.182-.612-1.849-1.721-1.849-.749 0-1.242.334-1.484.886h-.073v-.79h-.945v4.972ZM91.864 8.96v1.261h-.79v.826h.79v2.808c0 .959.433 1.342 1.524 1.342.192 0 .375-.022.535-.05v-.817c-.137.014-.224.023-.375.023-.488 0-.703-.229-.703-.749v-2.557h1.078v-.826h-1.078v-1.26h-.981ZM95.24 15.17h.982v-2.904c0-.753.447-1.26 1.25-1.26.695 0 1.064.402 1.064 1.196v2.968h.982v-3.21c0-1.182-.653-1.853-1.712-1.853-.749 0-1.274.333-1.516.89h-.077v-2.74h-.973v6.913ZM103.059 10.938c.726 0 1.201.506 1.223 1.287h-2.511c.055-.776.562-1.287 1.288-1.287Zm1.219 2.89c-.183.388-.589.602-1.183.602-.785 0-1.292-.552-1.324-1.424v-.055h3.511v-.342c0-1.562-.835-2.507-2.219-2.507-1.401 0-2.291 1.01-2.291 2.598 0 1.589.872 2.566 2.296 2.566 1.137 0 1.931-.548 2.155-1.438h-.945ZM17.246 21.33a5.488 5.488 0 0 1 2.592-4.566 5.64 5.64 0 0 0-4.39-2.374c-1.847-.194-3.638 1.105-4.58 1.105-.959 0-2.408-1.085-3.969-1.053a5.895 5.895 0 0 0-4.92 3c-2.127 3.683-.54 9.097 1.497 12.074 1.02 1.458 2.212 3.086 3.77 3.029 1.526-.064 2.096-.973 3.938-.973 1.825 0 2.36.973 3.95.936 1.637-.027 2.669-1.465 3.653-2.936a12.058 12.058 0 0 0 1.67-3.402 5.307 5.307 0 0 1-3.211-4.84ZM14.241 12.432a5.36 5.36 0 0 0 1.226-3.84 5.453 5.453 0 0 0-3.528 1.826 5.146 5.146 0 0 0-1.258 3.698 4.562 4.562 0 0 0 3.56-1.684Z"/>
    </symbol>

    <symbol id="app-desktop" viewBox="0 0 96 42">
        <path fill-rule="evenodd" d="M39.011 13.173a.78.78 0 0 1-.75 0 .784.784 0 0 1-.373-.922l.005-.018.723-2.135a.02.02 0 0 1 .01-.012.021.021 0 0 1 .03.012l.723 2.135a.784.784 0 0 1-.368.94Zm.164 1.013c.537.073.995.444 1.171.968l.204.604a.555.555 0 1 0 1.048-.366l-2.14-5.945a.864.864 0 0 0-1.624 0l-2.144 5.958a.546.546 0 1 0 1.03.359l.206-.61a1.442 1.442 0 0 1 1.366-.98h.688c.066 0 .131.004.195.012ZM43.572 11.218a.535.535 0 1 0-1.013.34l1.251 3.483a1.651 1.651 0 0 0 1.555 1.093l.001-.003v-.239c.043-.03.083-.062.12-.098l1.518-4.248a.526.526 0 1 0-.998-.334l-1.204 3.851a.014.014 0 0 1-.014.01.014.014 0 0 1-.013-.01l-1.203-3.845ZM49.367 14.29c.125-.253.415-.416.842-.465h.002a2.35 2.35 0 0 1 .1-.01l.882-.054a.393.393 0 0 1 .417.392 1.154 1.154 0 0 1-.424.894 1.345 1.345 0 0 1-.538.27 1.562 1.562 0 0 1-.69.017.973.973 0 0 1-.378-.167.69.69 0 0 1-.282-.566c0-.115.023-.219.069-.311Zm-.774-.652a1.532 1.532 0 0 1 .4-.288c.258-.133.575-.223.947-.265.073-.008.148-.014.226-.019l1.037-.061a.432.432 0 0 0 .407-.431c0-.288-.095-.52-.27-.681-.175-.162-.43-.253-.75-.26h-.039c-.425 0-.741.138-.93.374-.037.045-.075.09-.115.132l-.009.009a1.326 1.326 0 0 1-.081.078.65.65 0 0 1-.423.182.531.531 0 0 1-.231-.053c-.192-.092-.307-.296-.215-.507a1.593 1.593 0 0 1 .303-.459c.368-.39.952-.634 1.701-.642h.04c.53 0 .977.113 1.32.319.497.299.775.793.775 1.422v3.128a.52.52 0 0 1-.52.52h-.083a.435.435 0 0 1-.436-.436v-.42a.016.016 0 0 0-.016-.015.016.016 0 0 0-.014.008 1.66 1.66 0 0 1-.325.427 1.858 1.858 0 0 1-.594.38 1.982 1.982 0 0 1-.74.146c-.319 0-.608-.061-.855-.174a1.536 1.536 0 0 1-.594-.467 1.54 1.54 0 0 1-.304-.954c0-.402.134-.737.388-.993ZM54.96 9.826a.375.375 0 0 0 .373-.376.38.38 0 0 0-.372-.38.379.379 0 0 0-.368.38c0 .224.18.376.367.376Zm.433.079a.61.61 0 0 0 .2-.455.629.629 0 0 0-.633-.624.625.625 0 0 0-.43 1.077.64.64 0 0 0 .863.001Zm-.032 1.116a.54.54 0 0 0-.4-.178h-.001a.54.54 0 0 0-.542.541v4.21a.541.541 0 0 0 1.083 0v-4.21a.54.54 0 0 0-.14-.363ZM57.837 8.876a.541.541 0 0 0-.541.541v6.177a.541.541 0 0 0 1.083 0V9.417a.541.541 0 0 0-.542-.541ZM61.09 14.29c.125-.253.416-.416.843-.465h.001l.1-.01.883-.054a.393.393 0 0 1 .417.392 1.154 1.154 0 0 1-.423.894 1.346 1.346 0 0 1-.54.27 1.562 1.562 0 0 1-.69.017.972.972 0 0 1-.378-.167.689.689 0 0 1-.282-.566c0-.115.024-.219.07-.311Zm-.773-.652a1.536 1.536 0 0 1 .4-.288c.257-.133.575-.223.947-.265.073-.008.148-.014.225-.019l1.038-.061a.432.432 0 0 0 .406-.431c0-.288-.094-.52-.27-.681-.174-.162-.43-.253-.75-.26h-.038c-.425 0-.741.138-.93.374-.037.045-.075.09-.116.132l-.008.009a1.357 1.357 0 0 1-.082.078.65.65 0 0 1-.422.182.53.53 0 0 1-.231-.053c-.192-.092-.307-.296-.215-.507a1.587 1.587 0 0 1 .303-.459c.367-.39.951-.634 1.7-.642h.04c.531 0 .977.113 1.32.319.497.299.775.793.775 1.422v3.128a.52.52 0 0 1-.519.52h-.084a.435.435 0 0 1-.435-.436v-.42a.016.016 0 0 0-.03-.007l-.004.007a1.658 1.658 0 0 1-.32.42 1.857 1.857 0 0 1-.595.38 1.982 1.982 0 0 1-.74.146c-.32 0-.608-.061-.855-.174a1.536 1.536 0 0 1-.595-.467 1.54 1.54 0 0 1-.303-.954c0-.402.134-.737.388-.993ZM66.61 16.132a.527.527 0 0 1-.466-.524v-6.19a.541.541 0 0 1 1.083 0v2.309a.016.016 0 0 0 .03.007l.004-.007a1.778 1.778 0 0 1 1.363-.95 2.256 2.256 0 0 1 .827.042c1.022.249 1.662 1.232 1.662 2.67 0 1.466-.661 2.463-1.724 2.688a2.294 2.294 0 0 1-.765.03 1.948 1.948 0 0 1-.72-.242l-.006-.004a1.775 1.775 0 0 1-.352-.276 1.906 1.906 0 0 1-.318-.43l-.01-.016v-.004a.02.02 0 0 0-.02.02v.43a.45.45 0 0 1-.45.45h-.077a.545.545 0 0 1-.061-.003Zm.714-3.393c-.066.223-.1.475-.1.75 0 .642.195 1.152.522 1.467a1.23 1.23 0 0 0 .878.35 1.35 1.35 0 0 0 .493-.095c.545-.226.886-.843.886-1.722 0-.866-.314-1.477-.848-1.711a1.221 1.221 0 0 0-.238-.076 1.41 1.41 0 0 0-.293-.03c-.341 0-.633.116-.861.325a1.604 1.604 0 0 0-.439.742ZM73.188 8.876a.541.541 0 0 0-.541.541v6.177a.541.541 0 0 0 1.082 0V9.417a.541.541 0 0 0-.541-.541ZM79.698 13.761a.37.37 0 0 0 .373-.373c0-.808-.225-1.473-.64-1.933a2.027 2.027 0 0 0-.402-.344c-.362-.236-.811-.364-1.334-.364-.49 0-.92.118-1.279.337a2.153 2.153 0 0 0-.48.397c-.437.484-.683 1.185-.683 2.034 0 .716.173 1.32.493 1.774.425.604 1.11.947 1.995.947h.023c.726-.006 1.344-.26 1.75-.675l.02-.02c.106-.111.198-.234.272-.367a.359.359 0 0 0-.035-.415.517.517 0 0 0-.391-.179.625.625 0 0 0-.377.142.978.978 0 0 0-.128.114 1.574 1.574 0 0 0-.08.09c-.222.266-.584.43-1.03.43l-.024-.001c-.51-.007-.907-.225-1.146-.594a1.456 1.456 0 0 1-.01-.016l-.007-.012a1.501 1.501 0 0 1-.167-.392 1.965 1.965 0 0 1-.065-.515c0-.036.029-.065.065-.065h3.287Zm-2.698-1c.181.144.43.24.694.24.262 0 .512-.096.695-.24.24-.188.363-.456.245-.692a.58.58 0 0 0-.175-.202 1.25 1.25 0 0 0-.764-.244c-.285 0-.538.082-.746.226a.568.568 0 0 0-.204.235c-.101.23.021.492.255.677ZM85.64 14.975c.234.238.545.365.911.365h.002c.366 0 .677-.127.912-.365.308-.313.486-.819.486-1.486 0-.664-.177-1.167-.485-1.48a1.244 1.244 0 0 0-.913-.366h-.002c-.372 0-.687.13-.924.375-.302.313-.476.814-.476 1.471 0 .666.179 1.172.488 1.486Zm2.48.758c-.413.326-.947.503-1.567.503h-.002c-.62 0-1.153-.176-1.566-.502-.591-.467-.935-1.24-.935-2.245 0-.988.336-1.753.914-2.221.416-.338.957-.52 1.587-.521h.002c.62 0 1.154.177 1.568.504.59.466.935 1.238.935 2.238 0 1.002-.345 1.776-.936 2.244ZM91.534 11.111a.44.44 0 0 1 .036.175v.427a.016.016 0 0 0 .03.007l.004-.007c.077-.16.174-.303.29-.427a1.58 1.58 0 0 1 .618-.409c.112-.042.233-.074.361-.095a2.364 2.364 0 0 1 .626-.018c1.011.098 1.586.82 1.586 1.945v2.882a.544.544 0 0 1-1.088 0v-2.67c0-.616-.224-1.018-.674-1.167a1.496 1.496 0 0 0-.45-.066 1.23 1.23 0 0 0-.791.263 1.27 1.27 0 0 0-.434.776c-.019.102-.028.21-.028.324v2.543a.541.541 0 0 1-1.083 0V11.36a.517.517 0 0 1 .517-.517h.073c.183 0 .34.11.407.268Zm-.835.176ZM89.232 24.607c-.542-.656-1.262-.985-2.16-.985-.387 0-.727.055-1.018.164-.173.064-.331.14-.475.232a2.089 2.089 0 0 0-.264.2c-.082.074-.16.152-.232.232l-.003.003a3.055 3.055 0 0 0-.265.34l-.012.019h-.075l-.226-1.046h-1.313V34.69h1.614v-3.141l-.005-.152a6.512 6.512 0 0 0-.03-.392c-.016-.198-.034-.38-.053-.545l-.003-.02-.005-.043h.096a2.553 2.553 0 0 0 .314.363 3.057 3.057 0 0 0 .213.187l.015.011c.131.1.28.188.445.264.077.035.158.068.243.098.283.1.615.15.998.15.602 0 1.128-.148 1.58-.444.455-.301.808-.743 1.059-1.326.255-.588.383-1.31.383-2.168 0-1.294-.274-2.269-.82-2.925Zm-3.336.438a1.42 1.42 0 0 0-.408.219 1.45 1.45 0 0 0-.423.548c-.026.056-.05.114-.07.176-.12.35-.183.79-.192 1.319v.226c0 .56.057 1.036.17 1.428.05.161.112.306.187.436.106.182.237.333.395.453l.006.005c.054.039.111.074.172.105.25.127.559.19.93.19.391 0 .715-.106.97-.32.26-.215.453-.52.58-.917.129-.396.192-.863.192-1.401 0-.816-.146-1.45-.437-1.9-.287-.451-.73-.677-1.326-.677-.285 0-.533.037-.746.11ZM81.098 29.207c.164-.487.246-1.046.246-1.675 0-.829-.15-1.535-.451-2.119a3.163 3.163 0 0 0-1.251-1.333c-.534-.305-1.149-.458-1.846-.458-.743 0-1.383.153-1.921.458-.538.306-.953.75-1.244 1.333-.287.58-.43 1.285-.43 2.12 0 .628.086 1.187.259 1.674.173.488.417.9.731 1.238a3.26 3.26 0 0 0 1.128.765c.433.173.91.26 1.429.26.556 0 1.055-.087 1.497-.26.442-.178.82-.433 1.135-.765.314-.338.554-.75.718-1.238Zm-2.229-3.958c-.282-.205-.65-.307-1.1-.307-.666 0-1.151.223-1.457.67-.305.446-.457 1.087-.457 1.92 0 .552.066 1.024.198 1.416.136.392.346.692.629.902.282.205.647.307 1.093.307.447 0 .812-.102 1.094-.307.283-.21.49-.51.622-.902s.198-.864.198-1.416c0-.55-.066-1.018-.198-1.4-.132-.388-.34-.682-.622-.883ZM67.232 23.766h.467l-.467.502v-.502Zm3.646 0v-1.682h-1.012l-.526 1.62-1.108.568v.718h1.033v4.067c0 .62.1 1.105.3 1.456.2.35.472.6.814.745a3 3 0 0 0 1.155.212c.305 0 .6-.027.882-.082.283-.055.513-.12.69-.198v-1.217a5.016 5.016 0 0 1-.56.143 3.538 3.538 0 0 1-.622.055c-.315 0-.568-.093-.759-.28-.191-.187-.287-.472-.287-.855V24.99h2.167v-1.224h-2.167Z" clip-rule="evenodd"/>
        <path fill-rule="evenodd" d="M62.688 20.697h-1.606v10.636h1.606v-2.55l.903-.772 2.42 3.322h1.886l-3.226-4.313 3.028-3.254h-1.846l-2.31 2.488a9.854 9.854 0 0 0-.478.56c-.165.215-.306.402-.424.561h-.035l.002-.024a95 95 0 0 0 .059-.84v-.009c.014-.239.021-.46.021-.665v-5.14Zm6.957 2.069-.189.58.54-.58h-.351Zm-.72 1.151-.693.744v-.39l.692-.354ZM58.983 30.431c.242-.342.363-.761.363-1.258 0-.433-.09-.786-.267-1.06a2.134 2.134 0 0 0-.766-.69 8.071 8.071 0 0 0-1.169-.547c-.46-.182-.82-.335-1.08-.458-.255-.123-.435-.246-.54-.369a.672.672 0 0 1-.157-.451c0-.237.107-.42.322-.547.218-.127.535-.191.95-.191.355 0 .704.05 1.046.15a7.443 7.443 0 0 1 1.032.37l.506-1.21a6.48 6.48 0 0 0-.944-.337 6.193 6.193 0 0 0-1.586-.21c-.875 0-1.579.175-2.112.526-.529.346-.793.854-.793 1.524 0 .424.084.773.253 1.046.169.269.417.5.745.69.328.192.732.383 1.21.575.488.196.857.364 1.107.506.256.136.429.27.52.403a.71.71 0 0 1 .144.437.789.789 0 0 1-.349.67c-.233.164-.613.246-1.142.246-.4 0-.827-.061-1.278-.184a7.345 7.345 0 0 1-1.21-.438v1.388a4.68 4.68 0 0 0 1.073.342c.383.077.839.116 1.367.116.67 0 1.236-.087 1.696-.26.465-.178.818-.437 1.06-.779ZM50.944 24.04c-.483-.279-1.062-.418-1.736-.418-.693 0-1.299.155-1.818.465-.52.31-.923.761-1.21 1.354-.287.592-.431 1.312-.431 2.16 0 .852.157 1.565.472 2.14a3.15 3.15 0 0 0 1.319 1.298c.565.287 1.22.431 1.962.431.547 0 1.016-.041 1.408-.123a5.224 5.224 0 0 0 1.155-.39v-1.305a7.428 7.428 0 0 1-1.196.417 5.627 5.627 0 0 1-1.299.136c-.679 0-1.207-.198-1.586-.594a1.973 1.973 0 0 1-.418-.696 3.184 3.184 0 0 1-.17-1h5.052v-.861l-.001-.139c-.016-.652-.146-1.216-.388-1.693a2.794 2.794 0 0 0-1.115-1.183Zm-.806 1.038c-.242-.164-.552-.246-.93-.246-.506 0-.916.164-1.23.492a1.717 1.717 0 0 0-.3.443 2.892 2.892 0 0 0-.247 1h3.445a2.655 2.655 0 0 0-.19-1l-.001-.005c-.119-.292-.301-.52-.547-.684ZM41.846 21.9c-.752-.374-1.645-.56-2.68-.56H36.09v9.993h2.775c1.126 0 2.087-.189 2.885-.567a4.032 4.032 0 0 0 1.825-1.702c.42-.757.63-1.698.63-2.823 0-1.071-.206-1.97-.616-2.694a3.956 3.956 0 0 0-1.743-1.647Zm.26 2.365c.26.529.39 1.203.39 2.023 0 1.217-.3 2.133-.896 2.748-.597.616-1.5.923-2.707.923H37.73V22.7h1.402c.729 0 1.342.13 1.839.39.501.255.88.647 1.135 1.176Z" clip-rule="evenodd"/>
        <path d="M26.28 10H2.942C1.629 10 .556 11.098.556 12.44v13.107c0 1.342 1.073 2.44 2.386 2.44h7.75a1.304 1.304 0 1 1 0 2.608H8.368a.697.697 0 0 0-.686.703c0 .386.308.702.686.702h12.421a.697.697 0 0 0 .686-.702.697.697 0 0 0-.686-.702H18.53a1.304 1.304 0 1 1 0-2.608h7.75c1.313 0 2.387-1.098 2.387-2.44V12.44c0-1.343-1.074-2.441-2.387-2.441ZM14.579 27.252c-.415 0-.751-.359-.751-.802 0-.443.336-.802.752-.802.415 0 .751.359.751.802 0 .443-.336.802-.752.802Zm12.416-2.012H2.228V11.872h24.766V25.24Z"/>
    </symbol>

    <symbol id="arrow" viewBox="0 0 19 19">
        <path d="M.397 4.403a1.345 1.345 0 0 1 1.92 0L9.5 11.68l7.183-7.278a1.345 1.345 0 0 1 1.92 0c.53.537.53 1.407 0 1.944l-8.143 8.25c-.53.537-1.39.537-1.92 0L.397 6.347a1.388 1.388 0 0 1 0-1.944Z"/>
    </symbol>

    <symbol id="arrow-base" viewBox="0 0 24 24">
        <path d="M8.293 18.707a1 1 0 0 1 0-1.414L13.586 12 8.293 6.707a1 1 0 0 1 1.414-1.414l6 6a1 1 0 0 1 0 1.414l-6 6a1 1 0 0 1-1.414 0Z"/>
    </symbol>

    <symbol id="bank-note-base" viewBox="0 0 24 24">
        <path d="M5.161 4H18.84c.527 0 .982 0 1.356.03.395.033.789.104 1.167.297a3 3 0 0 1 1.311 1.311c.193.378.264.772.296 1.167.031.375.031.83.031 1.356v7.678c0 .527 0 .981-.03 1.356-.033.395-.104.789-.297 1.167a3 3 0 0 1-1.311 1.311c-.378.193-.772.264-1.167.296-.375.031-.83.031-1.356.031H5.16c-.527 0-.981 0-1.356-.03-.395-.033-.789-.104-1.167-.297a3 3 0 0 1-1.311-1.311c-.193-.378-.264-.772-.296-1.167C1 16.82 1 16.365 1 15.838V8.162c0-.527 0-.981.03-1.356.033-.395.104-.789.297-1.167a3 3 0 0 1 1.311-1.311c.378-.193.772-.264 1.167-.296C4.18 4 4.635 4 5.161 4ZM3.968 6.024c-.272.022-.373.06-.422.085a1 1 0 0 0-.437.437c-.025.05-.063.15-.085.422C3 7.25 3 7.623 3 8.2v7.6c0 .577 0 .949.024 1.232.022.272.06.372.085.422a1 1 0 0 0 .437.437c.05.025.15.063.422.085C4.25 18 4.623 18 5.2 18h13.6c.577 0 .949 0 1.232-.024.272-.022.372-.06.422-.085a1 1 0 0 0 .437-.437c.025-.05.063-.15.085-.422C21 16.75 21 16.377 21 15.8V8.2c0-.577 0-.949-.024-1.232-.022-.272-.06-.373-.085-.422a1 1 0 0 0-.437-.437c-.05-.025-.15-.063-.422-.085C19.75 6 19.377 6 18.8 6H5.2c-.577 0-.949 0-1.232.024ZM12 10.5a1.5 1.5 0 1 0 0 3 1.5 1.5 0 0 0 0-3ZM8.5 12a3.5 3.5 0 1 1 7 0 3.5 3.5 0 0 1-7 0ZM6 9a1 1 0 0 1 1 1v4a1 1 0 1 1-2 0v-4a1 1 0 0 1 1-1Zm12 0a1 1 0 0 1 1 1v4a1 1 0 1 1-2 0v-4a1 1 0 0 1 1-1Z"/>
    </symbol>

    <symbol id="box" viewBox="0 0 38 38">
        <path d="M7.44.69C7.761.257 8.265 0 8.8 0h20.4c.535 0 1.039.256 1.36.69l5.1 6.91c.22.299.34.663.34 1.036v24.182a5.224 5.224 0 0 1-1.494 3.664A5.06 5.06 0 0 1 30.9 38H7.1a5.06 5.06 0 0 1-3.606-1.518A5.224 5.224 0 0 1 2 32.818V8.636c0-.373.12-.737.34-1.036L7.44.69Zm2.21 2.765L5.4 9.212v23.606c0 .458.18.898.498 1.221.319.325.751.506 1.202.506h23.8c.45 0 .883-.181 1.202-.506.319-.323.498-.763.498-1.22V9.211l-4.25-5.757H9.65Z"/>
        <path d="M2 8.636c0-.953.761-1.727 1.7-1.727h30.6c.939 0 1.7.774 1.7 1.727 0 .954-.761 1.728-1.7 1.728H3.7c-.939 0-1.7-.774-1.7-1.728ZM12.2 13.818c.939 0 1.7.773 1.7 1.727 0 1.375.537 2.693 1.494 3.664A5.06 5.06 0 0 0 19 20.727a5.06 5.06 0 0 0 3.606-1.518 5.224 5.224 0 0 0 1.494-3.664c0-.954.761-1.727 1.7-1.727s1.7.773 1.7 1.727c0 2.29-.895 4.488-2.49 6.107a8.432 8.432 0 0 1-6.01 2.53 8.432 8.432 0 0 1-6.01-2.53 8.707 8.707 0 0 1-2.49-6.107c0-.954.761-1.727 1.7-1.727Z"/>
    </symbol>

    <symbol id="card-with-arrow" viewBox="0 0 46 46">
        <path d="M26.205 7c3.364 0 6.001 0 8.079.235 2.118.239 3.827.737 5.246 1.858.426.336.82.707 1.18 1.11 1.206 1.352 1.746 2.994 2.005 5.018.25 1.969.25 4.462.25 7.616v.185c0 3.155 0 5.648-.25 7.617-.259 2.024-.8 3.665-2.005 5.018a9.315 9.315 0 0 1-1.18 1.11c-1.419 1.12-3.128 1.619-5.246 1.858-2.078.235-4.715.235-8.079.235h-5.65c-3.364 0-6 0-8.078-.235-2.119-.24-3.828-.737-5.247-1.858a9.313 9.313 0 0 1-1.18-1.11 7.22 7.22 0 0 1-1.391-2.349h2.89c.137.22.288.42.455.608.256.288.54.555.848.798.874.69 2.029 1.098 3.918 1.311 1.914.217 4.403.218 7.869.218h5.483c3.465 0 5.954-.002 7.868-.218 1.89-.213 3.044-.62 3.919-1.311.307-.243.591-.51.848-.798.718-.806 1.14-1.86 1.362-3.608.228-1.784.23-4.11.23-7.378 0-3.267-.002-5.594-.23-7.378-.223-1.748-.644-2.803-1.362-3.608a6.688 6.688 0 0 0-.848-.798c-.875-.69-2.03-1.098-3.92-1.312-1.913-.216-4.402-.218-7.867-.218h-5.483c-3.466 0-5.955.002-7.868.218-1.89.214-3.045.621-3.92 1.312-.307.243-.59.51-.847.798-.719.805-1.14 1.86-1.363 3.608-.227 1.784-.23 4.11-.23 7.378l.001 1.378H3.796l-.001-1.285v-.186c0-3.154 0-5.647.251-7.616.258-2.024.799-3.666 2.005-5.018a9.306 9.306 0 0 1 1.18-1.11c1.418-1.12 3.127-1.619 5.246-1.858C14.554 7 17.19 7 20.555 7h5.65Z"/>
        <path d="M41.658 18.755H5.103v-2.616h36.555v2.616ZM0 28.8c0-.723.586-1.309 1.308-1.309h15.558a1.308 1.308 0 0 1 0 2.616H1.308A1.308 1.308 0 0 1 0 28.8Z"/>
        <path d="M13.922 24.6a1.308 1.308 0 0 1 1.832-.262l4.553 3.415a1.308 1.308 0 0 1 .053 2.051L15.806 33.6a1.308 1.308 0 1 1-1.675-2.01l3.283-2.736-3.23-2.422a1.308 1.308 0 0 1-.262-1.832Z"/>
    </symbol>

    <symbol id="check-1" viewBox="0 0 90 90">
        <path d="M83.375 14.19a6.534 6.534 0 0 1 .342 9.234L39.062 71.512a6.534 6.534 0 0 1-9.397.185l-19.07-18.976a6.534 6.534 0 1 1 9.217-9.264l14.276 14.205 40.053-43.131a6.534 6.534 0 0 1 9.234-.342Z"/>
    </symbol>

    <symbol id="check-2" viewBox="0 0 24 24">
        <path d="M24 3.724 8.09 22 0 13.595l1.89-1.82 6.103 6.34L22.022 2 24 3.724Z"/>
    </symbol>

    <symbol id="check-in-circle" viewBox="0 0 22 22">
        <path d="M11 1.571a9.429 9.429 0 1 0 0 18.858A9.429 9.429 0 0 0 11 1.57ZM0 11C0 4.925 4.925 0 11 0s11 4.925 11 11-4.925 11-11 11S0 17.075 0 11Zm16.382-2.7a.786.786 0 0 1 0 1.112l-4.952 4.952a1.92 1.92 0 0 1-2.716 0l-2.81-2.808a.786.786 0 0 1 1.112-1.112l2.809 2.81a.35.35 0 0 0 .494 0L15.27 8.3a.786.786 0 0 1 1.111 0Z"/>
    </symbol>

    <symbol id="checked-circle-base" viewBox="0 0 24 24">
        <path d="M12 3a9 9 0 1 0 0 18 9 9 0 0 0 0-18ZM1 12C1 5.925 5.925 1 12 1s11 4.925 11 11-4.925 11-11 11S1 18.075 1 12Zm16.207-3.707a1 1 0 0 1 0 1.414l-6 6a1 1 0 0 1-1.414 0l-3-3a1 1 0 1 1 1.414-1.414l2.293 2.293 5.293-5.293a1 1 0 0 1 1.414 0Z"/>
    </symbol>

    <symbol id="close" viewBox="0 0 7 7">
        <path d="M.09.09c.119-.12.313-.12.432 0L3.5 3.068 6.478.09a.306.306 0 1 1 .432.432L3.932 3.5 6.91 6.478a.306.306 0 0 1-.432.432L3.5 3.932.522 6.91a.306.306 0 1 1-.432-.432L3.068 3.5.09.522a.306.306 0 0 1 0-.432Z"/>
    </symbol>

    <symbol id="coin-stack-base" viewBox="0 0 24 24">
        <path d="M4.269 1.722C5.424 1.262 6.952 1 8.589 1c1.636 0 3.164.262 4.32.721.575.23 1.107.526 1.513.908.393.37.73.884.752 1.525.002.023.003.045.003.068V8.62a.949.949 0 0 1 0 .114v2.538a6.05 6.05 0 0 1 6.055 1.484 5.98 5.98 0 0 1 0 8.49 6.051 6.051 0 0 1-9.258-.886c-.991.269-2.154.419-3.386.419-1.637 0-3.164-.262-4.32-.722-.575-.228-1.108-.525-1.513-.907-.408-.382-.754-.92-.755-1.593V4.22c.001-.672.348-1.209.756-1.591.405-.381.938-.678 1.513-.907ZM4 6.61V8.62l.001.032c.008.02.037.07.124.152.16.151.446.333.882.506.867.345 2.133.58 3.582.58 1.45 0 2.716-.235 3.583-.58.436-.173.722-.355.882-.506a.537.537 0 0 0 .123-.15V6.61c-.088.04-.177.077-.267.113-1.156.46-2.684.721-4.322.721-1.637 0-3.165-.261-4.32-.721A6.836 6.836 0 0 1 4 6.61Zm9.168-2.387a.611.611 0 0 0-.116-.137c-.16-.151-.446-.333-.882-.506-.867-.345-2.133-.58-3.582-.58-1.448 0-2.713.236-3.58.58-.436.174-.722.356-.883.506a.625.625 0 0 0-.117.137.622.622 0 0 0 .116.136c.16.15.446.332.882.506.867.344 2.133.58 3.582.58 1.45 0 2.716-.236 3.583-.58.436-.174.721-.356.882-.506a.623.623 0 0 0 .115-.136Zm.009 6.832a6.83 6.83 0 0 1-.266.113c-1.156.459-2.684.721-4.322.721-1.637 0-3.165-.262-4.32-.721A6.78 6.78 0 0 1 4 11.053v2.01l.001.032c.008.019.037.07.124.152.16.15.446.332.882.506.867.344 2.132.58 3.581.58 1.265 0 2.39-.18 3.232-.456a6.014 6.014 0 0 1 1.357-1.542v-1.28Zm1.502 2.654c-.197.136-.384.29-.56.465a3.98 3.98 0 0 0-.82 4.476c.028.048.053.1.074.154.188.369.436.715.746 1.023a4.051 4.051 0 0 0 5.703 0 3.98 3.98 0 0 0 0-5.653 4.054 4.054 0 0 0-5.143-.465Zm-3.545 4.8a6.004 6.004 0 0 1-.13-2.378c-.75.132-1.568.203-2.416.203-1.637 0-3.164-.262-4.32-.722A6.765 6.765 0 0 1 4 15.499v2.04a.52.52 0 0 0 .125.153c.16.15.446.332.882.506.867.345 2.132.58 3.581.58.948 0 1.816-.102 2.546-.27Z"/>
    </symbol>

    <symbol id="coins-base" viewBox="0 0 24 24">
        <path d="M19.135 4.865a6.368 6.368 0 0 0-9.006 0 1 1 0 0 1-1.414-1.414 8.368 8.368 0 0 1 11.834 0 8.368 8.368 0 0 1 0 11.835 1 1 0 0 1-1.414-1.415 6.368 6.368 0 0 0 0-9.006ZM9.369 8.262a6.369 6.369 0 1 0 0 12.737 6.369 6.369 0 0 0 0-12.737ZM1 14.63a8.369 8.369 0 1 1 16.737 0A8.369 8.369 0 1 1 1 14.63Z"/>
    </symbol>

    <symbol id="credit-card-base" viewBox="0 0 24 24">
        <path fill-rule="evenodd" d="M3 5a1 1 0 0 0-1 1v3h20V6a1 1 0 0 0-1-1H3Zm21 1a3 3 0 0 0-3-3H3a3 3 0 0 0-3 3v12a3 3 0 0 0 3 3h18a3 3 0 0 0 3-3V6Zm-2 5H2v7a1 1 0 0 0 1 1h18a1 1 0 0 0 1-1v-7Z" clip-rule="evenodd"/>
    </symbol>

    <symbol id="crew" viewBox="0 0 55 42">
        <path d="M48.083 32.019a.968.968 0 0 1-.952-.84.978.978 0 0 1 .816-1.108c1.979-.29 3.875-.92 5.636-1.876a.957.957 0 0 1 1.304.403.989.989 0 0 1-.397 1.325 18.874 18.874 0 0 1-6.269 2.087 1.136 1.136 0 0 1-.138.009ZM38.016 23.232a.95.95 0 0 1-.525-.158.989.989 0 0 1-.281-1.355c1.364-2.127 3.668-3.397 6.164-3.397a.97.97 0 0 1 .963.979.97.97 0 0 1-.963.978 5.39 5.39 0 0 0-4.551 2.509.956.956 0 0 1-.807.444Z"/>
        <path d="M45.508 20.28c-3.412 0-6.293-2.931-6.293-6.4 0-3.469 2.881-6.4 6.293-6.4 3.411 0 6.293 2.931 6.293 6.4 0 3.469-2.882 6.4-6.293 6.4Zm0-10.842c-2.367 0-4.368 2.034-4.368 4.442 0 2.408 2 4.442 4.368 4.442 2.368 0 4.368-2.034 4.368-4.442 0-2.408-2-4.442-4.368-4.442Z"/>
        <path d="M54.037 26.785a.97.97 0 0 1-.963-.979c0-3.047-2.438-5.526-5.434-5.526a.97.97 0 0 1-.962-.979.97.97 0 0 1 .962-.978c4.058 0 7.36 3.358 7.36 7.483a.97.97 0 0 1-.963.98Z"/>
        <path d="M47.64 20.28h-4.265a.97.97 0 0 1-.962-.98.97.97 0 0 1 .962-.978h4.265a.97.97 0 0 1 .963.979.97.97 0 0 1-.963.978ZM54.037 30.038a.97.97 0 0 1-.963-.98v-3.252a.97.97 0 0 1 .963-.978.97.97 0 0 1 .962.978v3.253a.97.97 0 0 1-.962.979ZM6.917 32.019c.47 0 .883-.352.952-.84a.978.978 0 0 0-.816-1.108 16.907 16.907 0 0 1-5.636-1.876.957.957 0 0 0-1.304.403.989.989 0 0 0 .397 1.325 18.875 18.875 0 0 0 6.269 2.087c.047.006.093.009.138.009ZM16.985 23.232a.95.95 0 0 0 .524-.158.989.989 0 0 0 .281-1.355c-1.364-2.127-3.668-3.397-6.164-3.397a.97.97 0 0 0-.963.979c0 .54.43.978.963.978a5.39 5.39 0 0 1 4.551 2.509.956.956 0 0 0 .808.444Z"/>
        <path d="M9.492 20.28c3.412 0 6.293-2.931 6.293-6.4 0-3.469-2.881-6.4-6.293-6.4-3.411 0-6.293 2.931-6.293 6.4 0 3.469 2.882 6.4 6.293 6.4Zm0-10.842c2.367 0 4.368 2.034 4.368 4.442 0 2.408-2 4.442-4.368 4.442-2.368 0-4.368-2.034-4.368-4.442 0-2.408 2-4.442 4.368-4.442Z"/>
        <path d="M.963 26.785a.97.97 0 0 0 .963-.979c0-3.047 2.438-5.526 5.434-5.526a.97.97 0 0 0 .962-.979.97.97 0 0 0-.962-.978C3.302 18.323 0 21.68 0 25.806c0 .54.431.98.963.98Z"/>
        <path d="M7.36 20.28h4.264a.97.97 0 0 0 .963-.98.97.97 0 0 0-.963-.978H7.36a.97.97 0 0 0-.963.979.97.97 0 0 0 .963.978ZM.963 30.038a.97.97 0 0 0 .963-.98v-3.252a.97.97 0 0 0-.963-.978.97.97 0 0 0-.962.978v3.253c0 .541.43.979.962.979ZM12.813 32.6a1.26 1.26 0 0 1-1.25-1.272c0-6.917 5.533-12.542 12.333-12.542.691 0 1.25.568 1.25 1.272a1.26 1.26 0 0 1-1.25 1.271c-5.422 0-9.832 4.485-9.832 9.999 0 .703-.56 1.272-1.25 1.272Z"/>
        <path d="M31.285 21.33h-7.39a1.26 1.26 0 0 1-1.25-1.272c0-.704.56-1.272 1.25-1.272h7.39c.691 0 1.25.568 1.25 1.272a1.26 1.26 0 0 1-1.25 1.271ZM12.813 38.235a1.26 1.26 0 0 1-1.25-1.272v-5.635c0-.704.559-1.272 1.25-1.272.692 0 1.251.568 1.251 1.272v5.635c0 .704-.56 1.272-1.25 1.272Z"/>
        <path d="M27.59 21.33c-5.684 0-10.487-4.885-10.487-10.665C17.103 4.884 21.906 0 27.59 0c5.685 0 10.487 4.884 10.487 10.665 0 5.78-4.802 10.664-10.487 10.664Zm0-18.786c-4.328 0-7.985 3.719-7.985 8.12 0 4.403 3.657 8.122 7.985 8.122 4.329 0 7.986-3.72 7.986-8.121 0-4.402-3.657-8.121-7.986-8.121Z"/>
        <path d="M42.367 32.6a1.26 1.26 0 0 1-1.25-1.272c0-5.514-4.41-9.998-9.832-9.998a1.26 1.26 0 0 1-1.25-1.272 1.26 1.26 0 0 1 1.25-1.272c6.801 0 12.333 5.627 12.333 12.542a1.26 1.26 0 0 1-1.25 1.272Z"/>
        <path d="M42.367 38.235a1.26 1.26 0 0 1-1.25-1.272v-5.635c0-.704.558-1.272 1.25-1.272s1.25.568 1.25 1.272v5.635a1.26 1.26 0 0 1-1.25 1.272Z"/>
        <path d="M27.59 42a32.203 32.203 0 0 1-15.366-3.914 1.285 1.285 0 0 1-.515-1.722 1.244 1.244 0 0 1 1.693-.524 29.657 29.657 0 0 0 28.377 0 1.243 1.243 0 0 1 1.694.524c.325.62.094 1.39-.515 1.722A32.225 32.225 0 0 1 27.59 42Z"/>
    </symbol>

    <symbol id="cross-in-circle" viewBox="0 0 22 22">
        <path d="M11 1.222C5.6 1.222 1.222 5.6 1.222 11S5.6 20.778 11 20.778 20.778 16.4 20.778 11 16.4 1.222 11 1.222ZM0 11C0 4.925 4.925 0 11 0s11 4.925 11 11-4.925 11-11 11S0 17.075 0 11Z"/>
        <path d="M14.858 14.859a.611.611 0 0 1-.864 0L7.228 8.093a.611.611 0 1 1 .864-.864l6.766 6.766a.611.611 0 0 1 0 .864Z"/>
        <path d="M14.858 7.229a.611.611 0 0 1 0 .864L8.092 14.86a.611.611 0 1 1-.864-.864l6.766-6.766a.611.611 0 0 1 .864 0Z"/>
    </symbol>

    <symbol id="eye-closed" viewBox="0 0 20 20">
        <path d="M19.564 6.96c.17-.37.313-.743.413-1.118a.668.668 0 0 0-.572-.837c-.333-.038-.636.196-.728.517-.143.5-.622 1.37-.91 1.872-.15.269-.346.51-.578.713l-.003.003c-1.214 1.406-2.703 2.457-4.54 3.053-.721.227-1.47.353-2.225.374a8.864 8.864 0 0 1-3.178-.437 9.399 9.399 0 0 1-2.677-1.432.654.654 0 0 0-.164-.146c-.055-.033-.103-.068-.156-.103a14.095 14.095 0 0 1-.339-.286c-.67-.589-1.224-1.104-1.737-1.828-.022.014-.066-.129-.088-.114-.567-.918-.76-1.665-.763-1.678a.669.669 0 0 0-1.3.312c.015.064.228.912.853 1.96 0 0-.002 0-.003.002.01.018.024.035.036.054.31.511.728 1.064 1.262 1.6L.58 10.85a.67.67 0 0 0 .891 1l1.683-1.496c.597.506 1.246.948 1.936 1.319.055.03.11.055.165.083l-1.067 1.931a.667.667 0 0 0 .925.9.67.67 0 0 0 .246-.253l1.122-2.032c.913.34 1.859.55 2.85.621v1.708a.67.67 0 0 0 1.34 0v-1.696a9.312 9.312 0 0 0 2.142-.367c.282-.085.556-.18.825-.28l1.13 2.045a.666.666 0 0 0 .909.262.67.67 0 0 0 .261-.91l-1.072-1.94a10.494 10.494 0 0 0 2.079-1.417l1.711 1.521a.665.665 0 0 0 .946-.056.671.671 0 0 0-.057-.945L17.899 9.39c.477-.528.913-1.11 1.317-1.75.143-.212.26-.44.349-.678l-.001-.001Z"/>
    </symbol>

    <symbol id="eye-open" viewBox="0 0 18 18">
        <path d="M13.62 4.588a11.13 11.13 0 0 1 2.848 2.168c.498.53.939 1.102 1.313 1.726.297.491.292.985-.015 1.473-1.467 2.329-3.517 3.895-6.153 4.679a9.171 9.171 0 0 1-3.172.346c-1.468-.086-2.832-.5-4.123-1.191a10.916 10.916 0 0 1-2.907-2.26 9.659 9.659 0 0 1-1.196-1.6c-.295-.499-.285-.997.023-1.49 1.08-1.722 2.534-3.034 4.338-3.957a9.737 9.737 0 0 1 3.162-.993c.429-.057.862-.078 1.388-.083a9.777 9.777 0 0 1 4.494 1.182Zm-9.611 1.78c-1.045.738-1.893 1.665-2.61 2.719-.072.108-.04.173.02.261a10.994 10.994 0 0 0 1.784 2.041c.935.819 1.97 1.459 3.15 1.856.967.32 1.984.46 3.002.414a7.69 7.69 0 0 0 2.101-.353c2.182-.707 3.85-2.086 5.125-3.971.067-.098.056-.175-.006-.268a9.97 9.97 0 0 0-2.579-2.697c-.321-.228-.649-.45-1.024-.612 1.072 2.108.481 4.395-1.215 5.737-1.48 1.17-3.735 1.238-5.266.187-1.547-1.06-2.75-3.391-1.448-5.951-.357.191-.702.405-1.034.637Zm2.043 1.813a.462.462 0 0 0 .492.185c.205-.056.33-.218.34-.456.05-.972.54-1.627 1.436-1.984.209-.085.43-.098.655-.108.302-.015.477-.2.472-.473-.006-.274-.193-.441-.498-.446-.134 0-.268.01-.4.029-1.386.18-2.522 1.44-2.565 2.866 0 .12-.02.261.068.387Z"/>
    </symbol>

    <symbol id="fb-square" viewBox="0 0 32 32">
        <g fill-rule="evenodd" clip-rule="evenodd">
            <path d="M20.285 13.227v2.59c0 .378.307.685.685.685h3.437L23.93 19.5h-2.96a.684.684 0 0 0-.684.683v11.138a.685.685 0 0 0 1.368 0V20.869h2.86a.685.685 0 0 0 .676-.577l.694-4.368a.684.684 0 0 0-.675-.79h-3.555v-2.037l-.683.684.017-.031.653-.687c-.035-.7.066-1.26.592-1.307h3.294a.684.684 0 0 0 .683-.684v-4.05a.683.683 0 0 0-.531-.667c-2.613-.597-5.582-.409-7.552.727-1.436.828-2.377 2.136-2.397 3.982v4.07h-3.177a.683.683 0 0 0-.684.683v4.367c0 .378.306.684.684.684h3.177v10.454a.685.685 0 0 0 1.368 0V20.184a.683.683 0 0 0-.684-.683h-3.177v-3h3.177a.684.684 0 0 0 .684-.684v-4.74c.019-1.658 1.111-2.68 2.595-3.214 1.5-.542 3.389-.603 5.15-.284v2.809H22.21l-.041.001c-1.256.077-1.977 1.106-1.896 2.742a.616.616 0 0 0 .011.096Z"/>
            <path d="M28 1H4a3 3 0 0 0-3 3v24a3 3 0 0 0 3 3h24a3 3 0 0 0 3-3V4a3 3 0 0 0-3-3ZM4 0a4 4 0 0 0-4 4v24a4 4 0 0 0 4 4h24a4 4 0 0 0 4-4V4a4 4 0 0 0-4-4H4Z"/>
        </g>
    </symbol>

    <symbol id="file-text-base" viewBox="0 0 24 24">
        <path fill-rule="evenodd" d="M3.879 1.879A3 3 0 0 1 6 1h8a1 1 0 0 1 .707.293l6 6A1 1 0 0 1 21 8v12a3 3 0 0 1-3 3H6a3 3 0 0 1-3-3V4a3 3 0 0 1 .879-2.121ZM6 3a1 1 0 0 0-1 1v16a1 1 0 0 0 1 1h12a1 1 0 0 0 1-1V9h-5a1 1 0 0 1-1-1V3H6Zm9 1.414L17.586 7H15V4.414ZM7 9a1 1 0 0 1 1-1h2a1 1 0 1 1 0 2H8a1 1 0 0 1-1-1Zm0 4a1 1 0 0 1 1-1h8a1 1 0 1 1 0 2H8a1 1 0 0 1-1-1Zm0 4a1 1 0 0 1 1-1h8a1 1 0 1 1 0 2H8a1 1 0 0 1-1-1Z" clip-rule="evenodd"/>
    </symbol>

    <symbol id="filled-arrow" viewBox="0 0 34 34">
        <path d="M17 27 0 9h34L17 27Z"/>
    </symbol>

    <symbol id="hamburger" viewBox="0 0 210 210">
        <path d="M0 45c0-8.284 6.716-15 15-15h180c8.284 0 15 6.716 15 15 0 8.284-6.716 15-15 15H15C6.716 60 0 53.284 0 45ZM0 105c0-8.284 6.716-15 15-15h180c8.284 0 15 6.716 15 15 0 8.284-6.716 15-15 15H15c-8.284 0-15-6.716-15-15ZM0 165c0-8.284 6.716-15 15-15h180c8.284 0 15 6.716 15 15 0 8.284-6.716 15-15 15H15c-8.284 0-15-6.716-15-15Z"/>
    </symbol>

    <symbol id="in-square" viewBox="0 0 32 32">
        <path d="M26.161 25.626h-3.664c-.31 0-.516-.207-.516-.516v-7.123c0-1.91-.104-2.529-.207-2.735a1.287 1.287 0 0 0-.568-.775c-.258-.206-.567-.258-.929-.258a2.3 2.3 0 0 0-1.341.413c-.413.31-.671.671-.826 1.136-.104.361-.258 1.187-.258 3.045v6.297c0 .31-.207.516-.517.516h-4.438c-.31 0-.516-.207-.516-.516V10.865c0-.31.206-.517.516-.517h3.664c.31 0 .516.207.516.516v.775c1.188-1.084 2.581-1.6 4.233-1.6.929 0 1.755.155 2.529.516.774.31 1.393.774 1.806 1.29.413.516.671 1.136.826 1.755.155.62.206 1.497.206 2.632v8.878c0 .31-.206.516-.516.516Zm-3.148-1.033h2.632v-8.31c0-1.031-.052-1.857-.206-2.425-.104-.516-.362-.98-.671-1.394-.31-.412-.774-.722-1.394-.98a5.522 5.522 0 0 0-2.116-.413c-1.755 0-3.2.723-4.335 2.22-.155.154-.362.257-.568.154a.496.496 0 0 1-.362-.464v-1.6h-2.632v13.212h3.407v-5.78c0-1.652.103-2.736.31-3.355a3.19 3.19 0 0 1 1.187-1.652 3.284 3.284 0 0 1 1.96-.619 2.73 2.73 0 0 1 1.55.465c.412.31.722.722.928 1.29.103.31.258.98.258 3.097v6.554h.052ZM9.18 25.627H5.516c-.31 0-.516-.207-.516-.516V10.865c0-.31.206-.517.516-.517h3.665c.31 0 .516.207.516.516V25.11c0 .31-.207.516-.516.516Zm-3.149-1.033h2.633V11.381H6.032v13.212ZM7.374 8.543C6.084 8.542 5 7.51 5 6.27 5 5.032 6.084 4 7.374 4s2.374 1.032 2.374 2.271c0 1.239-1.083 2.27-2.374 2.27Zm0-3.561c-.722 0-1.342.567-1.342 1.238s.62 1.24 1.342 1.24c.723 0 1.342-.569 1.342-1.24 0-.67-.62-1.238-1.342-1.238Z"/>
        <path fill-rule="evenodd" d="M28 1H4a3 3 0 0 0-3 3v24a3 3 0 0 0 3 3h24a3 3 0 0 0 3-3V4a3 3 0 0 0-3-3ZM4 0a4 4 0 0 0-4 4v24a4 4 0 0 0 4 4h24a4 4 0 0 0 4-4V4a4 4 0 0 0-4-4H4Z" clip-rule="evenodd"/>
    </symbol>

    <symbol id="lightning" viewBox="0 0 46 46">
        <path d="m29.052 4.576-18.79 18.87c-.052.05-.064.09-.069.116a.252.252 0 0 0 .019.136.248.248 0 0 0 .08.107c.021.015.055.033.126.033h7.635c2.334 0 3.971 2.293 3.237 4.504l-4.342 13.082 18.79-18.87a.21.21 0 0 0 .069-.116.253.253 0 0 0-.019-.136.247.247 0 0 0-.08-.107c-.021-.015-.055-.033-.126-.033h-7.635c-2.334 0-3.971-2.293-3.237-4.504l4.342-13.082Zm-.75-3.768c2.016-2.024 5.336.076 4.447 2.753l-5.014 15.105a.228.228 0 0 0 .212.303h7.635c3.047 0 4.556 3.69 2.414 5.841L17.699 45.191c-2.017 2.025-5.337-.075-4.448-2.752l5.014-15.105a.228.228 0 0 0-.212-.303h-7.635c-3.047 0-4.556-3.69-2.414-5.841L28.301.808Z"/>
    </symbol>

    <symbol id="loader12" viewBox="0 0 100 100">
        <path fill-opacity=".28" d="M95.833 45.833H75A4.179 4.179 0 0 0 70.833 50 4.179 4.179 0 0 0 75 54.167h20.833A4.179 4.179 0 0 0 100 50a4.179 4.179 0 0 0-4.167-4.167Z"/>
        <path fill-opacity=".76" d="M29.167 50A4.179 4.179 0 0 0 25 45.833H4.167A4.179 4.179 0 0 0 0 50a4.179 4.179 0 0 0 4.167 4.167H25A4.179 4.179 0 0 0 29.167 50Z"/>
        <path fill-opacity=".52" d="M50 70.833A4.179 4.179 0 0 0 45.833 75v20.833A4.179 4.179 0 0 0 50 100a4.179 4.179 0 0 0 4.166-4.167V75A4.179 4.179 0 0 0 50 70.833Z"/>
        <path d="M50 0a4.179 4.179 0 0 0-4.167 4.167V25A4.179 4.179 0 0 0 50 29.167 4.179 4.179 0 0 0 54.166 25V4.167A4.179 4.179 0 0 0 50 0Z"/>
        <path fill-opacity=".2" d="M68.047 39.583c1.146 2.006 3.698 2.683 5.703 1.537l18.047-10.417c2.005-1.146 2.682-3.698 1.536-5.703-1.145-2.005-3.698-2.682-5.703-1.536L69.583 33.88a4.179 4.179 0 0 0-1.536 5.703Z"/>
        <path fill-opacity=".68" d="M31.953 60.417c-1.145-2.006-3.697-2.683-5.703-1.537L8.203 69.297C6.198 70.443 5.521 72.995 6.667 75c1.146 2.005 3.698 2.682 5.703 1.536L30.417 66.12a4.179 4.179 0 0 0 1.536-5.703Z"/>
        <path fill-opacity=".44" d="M66.12 69.557c-1.146-2.005-3.699-2.682-5.704-1.536s-2.682 3.698-1.536 5.703L69.296 91.77c1.146 2.005 3.698 2.682 5.704 1.536 2.005-1.146 2.682-3.698 1.536-5.703L66.12 69.557Z"/>
        <path fill-opacity=".92" d="M30.703 8.23C29.558 6.223 27.006 5.546 25 6.692c-2.005 1.145-2.682 3.697-1.536 5.703L33.88 30.443c1.146 2.005 3.698 2.682 5.704 1.536 2.005-1.146 2.682-3.698 1.536-5.703L30.703 8.229Z"/>
        <path fill-opacity=".12" d="M60.416 31.953a4.179 4.179 0 0 0 5.703-1.536L76.536 12.37A4.179 4.179 0 0 0 75 6.667a4.179 4.179 0 0 0-5.704 1.536L58.88 26.25c-1.146 2.005-.469 4.557 1.536 5.703Z"/>
        <path fill-opacity=".6" d="M39.584 68.047a4.179 4.179 0 0 0-5.704 1.536L23.464 87.63A4.179 4.179 0 0 0 25 93.333a4.179 4.179 0 0 0 5.703-1.536L41.12 73.75c1.146-2.005.469-4.557-1.536-5.703Z"/>
        <path fill-opacity=".36" d="M91.77 69.297 73.725 58.88a4.179 4.179 0 0 0-5.704 1.537 4.179 4.179 0 0 0 1.537 5.703l18.047 10.416A4.179 4.179 0 0 0 93.307 75a4.179 4.179 0 0 0-1.537-5.703Z"/>
        <path fill-opacity=".84" d="M8.229 30.703 26.276 41.12a4.179 4.179 0 0 0 5.703-1.537c1.172-2.005.469-4.53-1.537-5.703L12.395 23.464A4.179 4.179 0 0 0 6.692 25a4.179 4.179 0 0 0 1.537 5.703Z"/>
    </symbol>

    <symbol id="logo" viewBox="0 0 175 22">
        <path d="M55.997 1.183c-.558-.223-1.192-.037-1.601.41l-9.648 11.398-9.684-11.398a1.384 1.384 0 0 0-1.564-.41c-.559.224-.932.745-.932 1.341v16.948a1.416 1.416 0 0 0 2.831 0V6.398l5.736 6.78 3.576 4.096 2.496-2.83 6.816-8.046v13.074a1.415 1.415 0 1 0 2.831 0V2.524a1.26 1.26 0 0 0-.857-1.34ZM12.377 1.941c-.396-.819-.971-.991-1.384-.991-.412 0-.987.171-1.382.979L1.032 19.09c-.116.22-.175.453-.175.691 0 .394.164.749.475 1.025.299.267.647.402 1.036.402.553 0 1-.282 1.259-.795l2.498-4.99.068.001h9.612l.069-.001 2.497 4.991c.258.512.71.794 1.272.794.377 0 .72-.133 1.02-.396a1.332 1.332 0 0 0 .296-1.693L12.377 1.941Zm2.035 10.589h-6.84l3.426-6.846 3.414 6.846ZM82.454 1.037h-9.278c-.36 0-.691.142-.959.409a1.32 1.32 0 0 0-.408.959v17.349c0 .869.496 1.367 1.36 1.367.865 0 1.361-.498 1.361-1.367v-6.425c.163.056.349.085.557.085h7.359c1.705 0 3.179-.611 4.38-1.817 1.201-1.205 1.81-2.676 1.81-4.371 0-1.704-.609-3.177-1.808-4.378-1.2-1.202-2.672-1.811-4.374-1.811ZM74.53 3.758h7.917c.962 0 1.763.334 2.449 1.021.686.687 1.019 1.49 1.019 2.453 0 .964-.333 1.764-1.019 2.447-.685.683-1.486 1.015-2.449 1.015h-7.359c-.208 0-.395.029-.558.085V3.758ZM145.88 7.226c0-1.704-.609-3.177-1.808-4.378-1.2-1.202-2.671-1.811-4.374-1.811h-9.278c-.36 0-.691.142-.958.409a1.317 1.317 0 0 0-.409.959v17.349c0 .869.496 1.367 1.36 1.367.865 0 1.361-.498 1.361-1.367v-6.425c.163.056.349.085.557.085h4.369l6.897 7.134a1.273 1.273 0 0 0 1.804.031c.506-.49.519-1.297.03-1.803l-5.207-5.386c1.48-.116 2.772-.715 3.846-1.793 1.201-1.205 1.81-2.676 1.81-4.371Zm-14.106-3.468h7.917c.962 0 1.763.334 2.449 1.021.686.687 1.019 1.49 1.019 2.453 0 .964-.333 1.764-1.019 2.447-.685.683-1.486 1.015-2.449 1.015h-7.359c-.208 0-.395.029-.558.085V3.758ZM111.269 3.971h4.107a1.43 1.43 0 0 0 0-2.859H103.023c-.382 0-.716.145-1.006.434-.289.29-.433.625-.433 1.325v16.863c0 .063.144.398.433.688.29.29.624.434 1.006.434h11.758c.007 0 .013-.008.019-.01h.576a1.43 1.43 0 0 0 0-2.859h-4.05c-.055 0-.102.004-.146.01h-6.737v-6.694h6.731c.017.001.033.005.05.005h3.002c.017 0 .033-.004.05-.005h.043c.005 0 .009-.005.013-.006a1.425 1.425 0 0 0 1.324-1.419c0-.74-.565-1.341-1.285-1.414-.013-.008-.025-.02-.039-.02h-9.889V3.971h6.826ZM172.629 17.987h-4.049c-.055 0-.103.004-.146.01h-6.738v-6.694h6.732c.017.001.033.005.05.005h3.002c.017 0 .033-.004.05-.005h.043c.004 0 .008-.005.013-.006a1.424 1.424 0 0 0 1.323-1.419c0-.74-.564-1.341-1.285-1.414-.013-.008-.025-.02-.039-.02h-9.889V3.971h10.933a1.43 1.43 0 1 0 0-2.859h-12.352c-.382 0-.717.145-1.006.434-.289.29-.434.625-.434 1.325v16.863c0 .063.145.398.434.688.289.29.624.434 1.006.434h11.757c.007 0 .013-.008.02-.01h.575a1.43 1.43 0 1 0 0-2.859Z"/>
    </symbol>

    <symbol id="mail-base" viewBox="0 0 24 24">
        <path d="M3.107 5.554 12 11.779l8.893-6.225A1.006 1.006 0 0 0 20 5H4c-.388 0-.728.227-.893.554ZM21 7.921l-8.427 5.898a1 1 0 0 1-1.146 0L3 7.921V18c0 .548.452 1 1 1h16c.548 0 1-.452 1-1V7.92ZM1 6c0-1.652 1.348-3 3-3h16c1.652 0 3 1.348 3 3v12c0 1.652-1.348 3-3 3H4c-1.652 0-3-1.348-3-3V6Z"/>
    </symbol>

    <symbol id="map-marker" viewBox="0 0 24 24">
        <path fill="#378AF8" d="M12 22c4-4 8-7.582 8-12a8 8 0 1 0-16 0c0 4.418 4 8 8 12Z"/>
        <path fill="#fff" d="M15 9a3 3 0 1 1-6 0 3 3 0 0 1 6 0Z"/>
    </symbol>

    <symbol id="merchant-2-base" viewBox="0 0 24 24">
        <path fill-rule="evenodd" d="M7 5.5a4.5 4.5 0 0 1 7.726-3.137 4.5 4.5 0 1 1-1.453 7.274A4.5 4.5 0 0 1 7 5.5Zm5.22 2.395A4.495 4.495 0 0 1 12 6.5c0-1.12.41-2.145 1.086-2.932a2.5 2.5 0 1 0-.866 4.327ZM16.5 4a2.5 2.5 0 1 0 0 5 2.5 2.5 0 0 0 0-5ZM3.568 12h.864c.252 0 .498 0 .706.017.229.019.499.063.77.201a2 2 0 0 1 .874.874c.079.155.127.31.158.456l1.593-.666.01-.004a12.352 12.352 0 0 1 .29-.126c.19-.08.456-.187.755-.294.553-.198 1.38-.458 2.055-.458.48 0 .956.057 1.421.17l2.386.58a2.544 2.544 0 0 1 1.955 2.334l1.483-1.082a2.61 2.61 0 0 1 3.347.234 2.503 2.503 0 0 1 0 3.602l-2.157 2.1a5.205 5.205 0 0 1-2.634 1.372l-3.05.593a5.278 5.278 0 0 1-2.254-.052l-2.757-.67-.003-.001a3.229 3.229 0 0 0-.77-.093H6.987a2.022 2.022 0 0 1-.205.82 2 2 0 0 1-.874.875 2.022 2.022 0 0 1-.77.201C4.93 23 4.684 23 4.432 23h-.864c-.252 0-.498 0-.706-.017a2.022 2.022 0 0 1-.77-.201 2 2 0 0 1-.874-.874 2.022 2.022 0 0 1-.201-.77C1 20.93 1 20.684 1 20.432v-5.864c0-.252 0-.498.017-.706.019-.229.063-.499.201-.77a2 2 0 0 1 .874-.874c.271-.138.541-.182.77-.201C3.07 12 3.316 12 3.568 12ZM7 19.087h1.61c.42 0 .838.05 1.246.15h.001l2.756.67c.458.112.936.123 1.4.033m0 0 3.049-.593a3.206 3.206 0 0 0 1.621-.843l2.158-2.1a.504.504 0 0 0 0-.734.61.61 0 0 0-.775-.052l-2.513 1.834c-.534.39-1.18.598-1.84.598h-2.427a1 1 0 0 1 0-2h1.545c.345 0 .577-.265.577-.534v-.307c0-.225-.16-.45-.43-.515l-2.385-.58a4.025 4.025 0 0 0-.95-.114c-.29 0-.818.14-1.38.34a13.547 13.547 0 0 0-.851.34l-.05.022-.012.005-.002.001a1.09 1.09 0 0 1-.03.013L7 15.691v3.396m-2-4.039V20.4a8.185 8.185 0 0 1-.011.588l-.014.002C4.86 21 4.697 21 4.4 21h-.8a8.205 8.205 0 0 1-.589-.012v-.013A8.187 8.187 0 0 1 3 20.4v-5.8a8.187 8.187 0 0 1 .011-.589h.014C3.14 14 3.303 14 3.6 14h.8c.297 0 .459 0 .575.01l.014.001v.014c.01.116.011.278.011.575v.448Z" clip-rule="evenodd"/>
    </symbol>

    <symbol id="message-chat-square-base" viewBox="0 0 24 24">
        <path fill-rule="evenodd" d="M6.759 1h7.482c.805 0 1.47 0 2.01.044.563.046 1.08.145 1.565.392a4 4 0 0 1 1.748 1.748c.247.485.346 1.002.392 1.564C20 5.29 20 5.954 20 6.758v3.26c.067.003.132.007.195.013.395.032.789.103 1.167.296a3 3 0 0 1 1.311 1.311c.193.378.264.772.297 1.167.03.375.03.83.03 1.356v2.785c0 .439 0 .817-.021 1.13-.023.33-.072.66-.207.986a3 3 0 0 1-1.624 1.624 3.07 3.07 0 0 1-.986.207 6.755 6.755 0 0 1-.162.009V22a1 1 0 0 1-1.57.821l-2.177-1.513c-.335-.233-.403-.276-.467-.305a1 1 0 0 0-.232-.072c-.069-.013-.149-.017-.557-.017h-1.835c-.528 0-.982 0-1.357-.03-.395-.033-.789-.104-1.167-.297a3 3 0 0 1-1.311-1.31c-.193-.38-.264-.772-.296-1.168a10.23 10.23 0 0 1-.028-.676l-1.393 1.41c-.192.194-.38.384-.544.524-.146.124-.456.374-.886.41a1.5 1.5 0 0 1-1.263-.518c-.281-.328-.326-.724-.342-.915-.02-.215-.02-.483-.02-.755V16.01a.278.278 0 0 0-.135-.053 4 4 0 0 1-3.378-3.378C1 12.29 1 11.963 1 11.52V6.76c0-.805 0-1.47.044-2.01.046-.563.145-1.08.392-1.565a4 4 0 0 1 1.748-1.748c.485-.247 1.002-.346 1.564-.392C5.29 1 5.954 1 6.758 1ZM11 15v1.714c0 .577 0 .95.024 1.233.022.271.06.372.085.421a1 1 0 0 0 .437.437c.05.026.15.063.422.085.283.023.655.024 1.232.024H15.06c.31 0 .585 0 .857.05a3 3 0 0 1 .694.218c.252.114.477.27.732.448l.052.036.605.42v-.172a1 1 0 0 1 1-1c.48 0 .79 0 1.026-.016.228-.016.315-.043.357-.06a1 1 0 0 0 .54-.541c.018-.042.045-.128.06-.357.017-.237.017-.546.017-1.026V14.2c0-.577 0-.949-.024-1.232-.022-.272-.06-.373-.085-.422a1 1 0 0 0-.437-.437c-.05-.025-.15-.063-.422-.085C19.75 12 19.377 12 18.8 12h-5.6c-.576 0-.949 0-1.232.024-.272.022-.373.06-.422.085a1 1 0 0 0-.437.437c-.025.05-.063.15-.085.422-.023.283-.024.655-.024 1.232v.8Zm-2-.41-2.444 2.474v-1.072c0-1.178-.958-1.883-1.846-2.013a2 2 0 0 1-1.689-1.69c-.018-.125-.021-.293-.021-.845V6.8c0-.857 0-1.439.038-1.889.035-.438.1-.663.18-.819a2 2 0 0 1 .874-.874c.156-.08.38-.145.82-.18C5.361 3 5.942 3 6.8 3h7.4c.857 0 1.439 0 1.889.038.438.035.663.1.819.18a2 2 0 0 1 .874.874c.08.156.145.38.18.819C18 5.361 18 5.943 18 6.8V10h-4.838c-.528 0-.982 0-1.357.03-.395.033-.789.104-1.167.297a3 3 0 0 0-1.311 1.311c-.193.378-.264.772-.296 1.167C9 13.18 9 13.635 9 14.162v.427Z" clip-rule="evenodd"/>
    </symbol>

    <symbol id="minus-circle-base" viewBox="0 0 24 24">
        <path d="M12 3a9 9 0 1 0 0 18 9 9 0 0 0 0-18ZM1 12C1 5.925 5.925 1 12 1s11 4.925 11 11-4.925 11-11 11S1 18.075 1 12Zm6 0a1 1 0 0 1 1-1h8a1 1 0 1 1 0 2H8a1 1 0 0 1-1-1Z"/>
    </symbol>

    <symbol id="office" viewBox="0 0 40 40">
        <path d="M8.571 16.043c0-.778.639-1.41 1.429-1.41h8.571c.79 0 1.429.632 1.429 1.41 0 .778-.639 1.41-1.429 1.41H10c-.79 0-1.429-.632-1.429-1.41Zm10 4.228H10c-.79 0-1.429.631-1.429 1.409S9.21 23.09 10 23.09h8.571c.79 0 1.429-.632 1.429-1.41 0-.778-.639-1.41-1.429-1.41Zm0 5.637H10c-.79 0-1.429.63-1.429 1.409 0 .778.639 1.41 1.429 1.41h8.571c.79 0 1.429-.632 1.429-1.41 0-.778-.639-1.41-1.429-1.41Zm0 5.637H10c-.79 0-1.429.63-1.429 1.409 0 .778.639 1.409 1.429 1.409h8.571c.79 0 1.429-.631 1.429-1.41 0-.777-.639-1.408-1.429-1.408ZM40 38.59c0 .778-.639 1.409-1.429 1.409H1.43C.639 40 0 39.369 0 38.59c0-.777.639-1.409 1.429-1.409h1.428V11.277a2.8 2.8 0 0 1 1.579-2.521L21.579.3a2.874 2.874 0 0 1 2.78.123 2.792 2.792 0 0 1 1.354 2.398v10.403h8.571c1.576 0 2.857 1.264 2.857 2.819v21.139h1.429c.79 0 1.43.63 1.43 1.409ZM25.714 16.043v21.139h8.572v-21.14h-8.572Zm-20 21.139h17.143V2.822L5.714 11.276v25.905Z"/>
    </symbol>

    <symbol id="phone-base" viewBox="0 0 24 24">
        <path d="M7.782 3.242A1 1 0 0 0 7.12 3H4.111a1 1 0 0 0-.995 1.084 18.79 18.79 0 0 0 2.914 8.222l.004.008a18.5 18.5 0 0 0 5.693 5.692l.008.005a18.79 18.79 0 0 0 8.183 2.914 1 1 0 0 0 1.082-1v-1.152h2v1.143a3.001 3.001 0 0 1-3.27 3l-.018-.002a20.789 20.789 0 0 1-9.062-3.222A20.5 20.5 0 0 1 4.35 13.39a20.79 20.79 0 0 1-3.223-9.104l-.002-.016A3 3 0 0 1 4.11 1h2.997a3 3 0 0 1 2.995 2.58v.01c.118.884.334 1.753.646 2.59a2.999 2.999 0 0 1-.675 3.163l-.004.004-.718.717a15.002 15.002 0 0 0 4.586 4.586l.717-.717.004-.004a3 3 0 0 1 3.164-.675c.836.312 1.705.528 2.59.645h.01A3 3 0 0 1 23 16.946c-.007.264 0 1.422-.001 1.828-.5 0-.712.007-1 0-.233-.006 0 0-1 0 0-.211-.007-1.559 0-1.878a1 1 0 0 0-.856-1.014 13.837 13.837 0 0 1-3.023-.754h-.002a1 1 0 0 0-1.054.223l-1.268 1.267a1 1 0 0 1-1.2.162 17 17 0 0 1-6.376-6.375 1 1 0 0 1 .162-1.201l1.268-1.268a1 1 0 0 0 .223-1.053V6.88a13.84 13.84 0 0 1-.754-3.024 1 1 0 0 0-.338-.614Z"/>
    </symbol>

    <symbol id="planet" viewBox="0 0 38 38">
        <path d="M15.518 7.021c-1.15 2.999-1.89 7.233-1.89 11.979 0 4.746.74 8.98 1.89 11.979.576 1.504 1.23 2.626 1.884 3.349.655.722 1.197.93 1.598.93.4 0 .943-.208 1.598-.93.655-.723 1.308-1.845 1.884-3.35 1.15-2.998 1.89-7.232 1.89-11.978 0-4.746-.74-8.98-1.89-11.979-.576-1.504-1.23-2.626-1.884-3.349-.655-.722-1.197-.93-1.598-.93-.4 0-.943.208-1.598.93-.655.723-1.308 1.845-1.884 3.35Zm-.18-5.18C16.3.78 17.535 0 19 0c1.465 0 2.7.78 3.662 1.841.962 1.062 1.765 2.521 2.412 4.207C26.37 9.43 27.143 14.01 27.143 19s-.773 9.57-2.07 12.952c-.646 1.686-1.449 3.145-2.411 4.207C21.7 37.22 20.465 38 19 38c-1.465 0-2.7-.78-3.662-1.841-.962-1.062-1.765-2.521-2.412-4.207C11.63 28.57 10.857 23.99 10.857 19s.773-9.57 2.07-12.952c.646-1.686 1.449-3.145 2.411-4.207Z"/>
        <path d="M0 19c0-1 .614-1.81 1.371-1.81H36.63C37.386 17.19 38 18 38 19s-.614 1.81-1.371 1.81H1.37C.614 20.81 0 20 0 19Z"/>
        <path d="M19 2.743C10.021 2.743 2.743 10.02 2.743 19c0 8.979 7.278 16.257 16.257 16.257 8.979 0 16.257-7.278 16.257-16.257 0-8.979-7.278-16.257-16.257-16.257ZM0 19C0 8.507 8.507 0 19 0s19 8.507 19 19-8.507 19-19 19S0 29.493 0 19Z"/>
    </symbol>

    <symbol id="plus-circle-base" viewBox="0 0 24 24">
        <path d="M12 3a9 9 0 1 0 0 18 9 9 0 0 0 0-18ZM1 12C1 5.925 5.925 1 12 1s11 4.925 11 11-4.925 11-11 11S1 18.075 1 12Zm11-5a1 1 0 0 1 1 1v3h3a1 1 0 1 1 0 2h-3v3a1 1 0 1 1-2 0v-3H8a1 1 0 1 1 0-2h3V8a1 1 0 0 1 1-1Z"/>
    </symbol>

    <symbol id="repeat-base" viewBox="0 0 24 24">
        <path d="M16.293.293a1 1 0 0 1 1.414 0l4 4a1 1 0 0 1 0 1.414l-4 4a1 1 0 0 1-1.414-1.414L18.586 6H7a3 3 0 0 0-3 3v2a1 1 0 1 1-2 0V9a5 5 0 0 1 5-5h11.586l-2.293-2.293a1 1 0 0 1 0-1.414ZM20 15v-2a1 1 0 1 1 2 0v2a5 5 0 0 1-5 5H5.414l2.293 2.293a1 1 0 1 1-1.414 1.414l-4-4a1 1 0 0 1 0-1.414l4-4a1 1 0 0 1 1.414 1.414L5.414 18H17a3 3 0 0 0 3-3Z"/>
    </symbol>

    <symbol id="rocket" viewBox="0 0 40 40">
        <path d="M39.953 2.986a3.11 3.11 0 0 0-2.94-2.94c-3.205-.174-9.479-.004-15.478 3.1-3.058 1.58-6.293 4.263-8.874 7.357l-.094.115-5.858.452a3.092 3.092 0 0 0-2.356 1.387L.356 18.502a2.133 2.133 0 0 0-.172 2.047c.297.671.907 1.138 1.631 1.25l4.936.765-.051.288a3.107 3.107 0 0 0 .87 2.703l6.875 6.874a3.115 3.115 0 0 0 2.703.871l.288-.05.764 4.935A2.143 2.143 0 0 0 20.318 40c.413 0 .823-.12 1.18-.356l6.045-3.997a3.092 3.092 0 0 0 1.386-2.356l.453-5.858.115-.094c3.094-2.581 5.776-5.816 7.358-8.874 3.103-6 3.273-12.273 3.098-15.479ZM26.25 33.692l-5.782 3.823-.745-4.81c2.444-.718 4.861-1.87 7.165-3.41l-.295 3.815a.764.764 0 0 1-.343.582Zm-10.148-2.92-6.874-6.874a.76.76 0 0 1-.217-.66 20.16 20.16 0 0 1 .915-3.481L20.241 30.07a20.247 20.247 0 0 1-3.48.918.76.76 0 0 1-.659-.217ZM6.89 13.407l3.816-.294c-1.542 2.303-2.693 4.72-3.411 7.164l-4.81-.745 3.823-5.782a.763.763 0 0 1 .582-.343ZM27.996 25.54c-1.894 1.58-3.731 2.721-5.425 3.548L10.913 17.429c1.082-2.211 2.404-4.053 3.548-5.424 2.389-2.864 5.36-5.334 8.15-6.778 5.507-2.848 11.308-3.001 14.275-2.84a.769.769 0 0 1 .727.727c.162 2.968.008 8.768-2.84 14.274-1.444 2.791-3.914 5.762-6.777 8.151Z"/>
        <path d="M27.4 18.456c1.5 0 3-.57 4.143-1.713a5.82 5.82 0 0 0 1.716-4.143 5.82 5.82 0 0 0-1.716-4.143 5.866 5.866 0 0 0-8.286 0A5.82 5.82 0 0 0 21.54 12.6c0 1.565.61 3.036 1.716 4.143a5.84 5.84 0 0 0 4.143 1.713Zm-2.486-8.342A3.504 3.504 0 0 1 27.4 9.086c.9 0 1.8.343 2.486 1.028a3.492 3.492 0 0 1 1.03 2.486c0 .939-.366 1.822-1.03 2.486a3.52 3.52 0 0 1-4.972 0 3.492 3.492 0 0 1-1.03-2.486c0-.939.366-1.822 1.03-2.486ZM1.196 32.964c.3 0 .6-.114.828-.343l3.826-3.826a1.172 1.172 0 1 0-1.657-1.658L.367 30.963a1.172 1.172 0 0 0 .829 2ZM9.356 30.644a1.172 1.172 0 0 0-1.657 0L.343 37.999A1.172 1.172 0 1 0 2 39.657L9.356 32.3c.458-.458.458-1.2 0-1.657ZM11.205 34.15 7.38 37.976a1.172 1.172 0 0 0 1.658 1.657l3.826-3.826a1.172 1.172 0 0 0-1.658-1.657Z"/>
    </symbol>

    <symbol id="search" viewBox="0 0 20 20">
        <path d="M19.366 19.993a.617.617 0 0 1-.44-.184l-6.043-6.104A7.755 7.755 0 0 1 7.78 15.62C3.49 15.62 0 12.116 0 7.81 0 3.502 3.49 0 7.78 0s7.78 3.503 7.78 7.81a7.836 7.836 0 0 1-1.805 5.002l6.051 6.114a.627.627 0 0 1-.44 1.067ZM7.78 1.239c-3.611 0-6.55 2.948-6.55 6.57 0 3.623 2.939 6.57 6.55 6.57 3.612 0 6.55-2.947 6.55-6.57 0-3.622-2.938-6.57-6.55-6.57Z"/>
    </symbol>

    <symbol id="shield" viewBox="0 0 38 38">
        <path d="M18.103.124C18.378.067 18.733 0 19 0c.266 0 .622.067.897.124.336.069.765.17 1.269.302a47.31 47.31 0 0 1 3.852 1.207c3.015 1.08 6.81 2.753 10.188 5.113l.02.013c.498.36.774.93.774 1.514v.005c-.042 11.266-3.699 18.666-7.626 23.268-1.954 2.29-3.961 3.87-5.594 4.887-.815.507-1.547.88-2.142 1.132a7.727 7.727 0 0 1-.819.297c-.21.062-.512.138-.819.138-.306 0-.61-.076-.82-.138a7.727 7.727 0 0 1-.818-.297 15.65 15.65 0 0 1-2.142-1.132c-1.632-1.017-3.64-2.597-5.594-4.887C5.699 26.945 2.042 19.545 2 8.278v-.005c0-.583.276-1.153.775-1.514l.019-.013c3.378-2.36 7.173-4.033 10.188-5.113A47.313 47.313 0 0 1 16.834.426c.504-.132.933-.233 1.27-.302ZM4.962 8.817c.153 10.279 3.513 16.849 6.923 20.844 1.745 2.044 3.517 3.43 4.91 4.298a12.73 12.73 0 0 0 1.728.917c.206.087.366.144.477.178.111-.034.27-.09.477-.178.437-.184 1.03-.482 1.728-.917 1.393-.867 3.165-2.254 4.91-4.298 3.41-3.996 6.77-10.566 6.923-20.844-2.975-1.995-6.3-3.459-9.028-4.436a44.34 44.34 0 0 0-3.605-1.13c-.463-.122-.839-.21-1.11-.265A6.974 6.974 0 0 0 19 2.93a7.005 7.005 0 0 0-.295.055c-.271.055-.646.143-1.11.265a44.35 44.35 0 0 0-3.605 1.13c-2.728.978-6.053 2.44-9.028 4.436Zm21.266 5.355c.64.5.75 1.42.243 2.053l-6.544 8.187a3.424 3.424 0 0 1-5.098.277l-2.703-2.715a1.45 1.45 0 0 1 .016-2.067 1.49 1.49 0 0 1 2.09.016l2.704 2.716c.191.191.498.178.672-.04l6.544-8.187a1.49 1.49 0 0 1 2.076-.24Z"/>
    </symbol>

    <symbol id="trending-down-base" viewBox="0 0 24 24">
        <path d="M.293 5.293a1 1 0 0 1 1.414 0L8.5 12.086l4.293-4.293a1 1 0 0 1 1.414 0L22 15.586V12a1 1 0 1 1 2 0v6a1 1 0 0 1-1 1h-6a1 1 0 1 1 0-2h3.586L13.5 9.914l-4.293 4.293a1 1 0 0 1-1.414 0l-7.5-7.5a1 1 0 0 1 0-1.414Z"/>
    </symbol>

    <symbol id="trustpilot-star" viewBox="0 0 24 24">
        <path d="m4.696 23 3.13-8.186L0 9.698h9.391L12 1l2.609 8.698H24L13.043 16.86l3.653-1.023L19.304 23 12 17.372 4.696 23Z"/>
    </symbol>

    <symbol id="user-base" viewBox="0 0 24 24">
        <path d="M12 4a3 3 0 1 0 0 6 3 3 0 0 0 0-6ZM7 7a5 5 0 1 1 10 0A5 5 0 0 1 7 7Zm-2.536 8.464A5 5 0 0 1 8 14h8a5 5 0 0 1 5 5v2a1 1 0 1 1-2 0v-2a3 3 0 0 0-3-3H8a3 3 0 0 0-3 3v2a1 1 0 1 1-2 0v-2a5 5 0 0 1 1.464-3.536Z"/>
    </symbol>

    <symbol id="wa-square" viewBox="0 0 32 32">
        <path fill-rule="evenodd" d="M28 1H4a3 3 0 0 0-3 3v24a3 3 0 0 0 3 3h24a3 3 0 0 0 3-3V4a3 3 0 0 0-3-3ZM4 0a4 4 0 0 0-4 4v24a4 4 0 0 0 4 4h24a4 4 0 0 0 4-4V4a4 4 0 0 0-4-4H4Z" clip-rule="evenodd"/>
        <path d="m21.293 17.152-.008.067c-1.962-.978-2.168-1.108-2.421-.728-.176.263-.688.86-.843 1.037-.156.174-.311.187-.576.067-.268-.134-1.127-.415-2.145-1.325-.792-.71-1.324-1.58-1.481-1.848-.262-.451.286-.515.783-1.458.09-.187.044-.335-.022-.467-.067-.134-.6-1.446-.823-1.97-.214-.52-.434-.454-.6-.454-.513-.045-.889-.038-1.22.307-1.44 1.583-1.077 3.216.155 4.953 2.422 3.17 3.713 3.753 6.072 4.563.637.203 1.218.174 1.678.108.512-.08 1.577-.643 1.799-1.272.228-.63.228-1.151.16-1.272-.065-.12-.24-.187-.508-.308Z"/>
        <path d="M23.103 7.928C16.695 1.734 6.09 6.226 6.087 14.965c0 1.746.458 3.45 1.33 4.954l-1.414 5.135 5.28-1.377C17.87 27.235 26 22.511 26.002 14.97a9.828 9.828 0 0 0-2.913-7.01l.013-.032Zm1.235 7.014c-.005 6.361-6.988 10.334-12.51 7.087l-.3-.178-3.125.812.837-3.038-.199-.312c-3.436-5.47.512-12.62 7.022-12.62 2.212 0 4.287.862 5.85 2.424a8.157 8.157 0 0 1 2.425 5.825Z"/>
    </symbol>

    <symbol id="whatsapp-base" viewBox="0 0 24 24">
        <path d="M17.5071 14.3069L17.4981 14.3819C15.2991 13.2859 15.0691 13.1399 14.7851 13.5659C14.5881 13.8609 14.0141 14.5299 13.8411 14.7279C13.6661 14.9229 13.4921 14.9379 13.1951 14.8029C12.8951 14.6529 11.9321 14.3379 10.7921 13.3179C9.90414 12.5229 9.30814 11.5479 9.13214 11.2479C8.83914 10.7419 9.45214 10.6699 10.0101 9.61393C10.1101 9.40393 10.0591 9.23893 9.98514 9.08993C9.91014 8.93993 9.31314 7.46993 9.06314 6.88393C8.82314 6.29993 8.57614 6.37393 8.39114 6.37393C7.81514 6.32393 7.39414 6.33193 7.02314 6.71793C5.40914 8.49193 5.81614 10.3219 7.19714 12.2679C9.91114 15.8199 11.3571 16.4739 14.0011 17.3819C14.7151 17.6089 15.3661 17.5769 15.8811 17.5029C16.4551 17.4119 17.6481 16.7819 17.8971 16.0769C18.1521 15.3719 18.1521 14.7869 18.0771 14.6519C18.0031 14.5169 17.8071 14.4419 17.5071 14.3069Z"/>
        <path d="M20.52 3.44894C12.831 -3.98406 0.106 1.40694 0.101 11.8929C0.101 13.9889 0.65 16.0329 1.696 17.8379L0 23.9999L6.335 22.3479C14.24 26.6179 23.996 20.9479 24 11.8989C24 8.72294 22.76 5.73394 20.505 3.48794L20.52 3.44894ZM22.002 11.8659C21.996 19.4989 13.617 24.2659 6.99 20.3699L6.63 20.1559L2.88 21.1309L3.885 17.4859L3.646 17.1109C-0.478 10.5459 4.26 1.96594 12.072 1.96594C14.726 1.96594 17.217 3.00094 19.093 4.87594C20.968 6.73494 22.002 9.22594 22.002 11.8659Z"/>
    </symbol>

    <symbol id="x-square" viewBox="0 0 32 32">
        <g fill-rule="evenodd" clip-rule="evenodd">
            <path d="M28 1H4a3 3 0 0 0-3 3v24a3 3 0 0 0 3 3h24a3 3 0 0 0 3-3V4a3 3 0 0 0-3-3ZM4 0a4 4 0 0 0-4 4v24a4 4 0 0 0 4 4h24a4 4 0 0 0 4-4V4a4 4 0 0 0-4-4H4Z"/>
            <path d="m18.63 23.333-3.7-5.273-4.63 5.273H8.34l5.721-6.512L8.34 8.667h5.03l3.487 4.97 4.37-4.97h1.959l-5.456 6.21 5.93 8.456h-5.03Zm2.182-1.486h-1.319l-8.348-11.694h1.32l3.343 4.682.578.813 4.426 6.199Z"/>
        </g>
    </symbol>

    <symbol id="zap-fast-base" viewBox="0 0 24 24">
        <path d="M17.368 2.07a1 1 0 0 1 .623 1.062L17.142 9.5h3.838c.22 0 .45 0 .639.017.185.017.524.062.826.296a1.5 1.5 0 0 1 .582 1.131c.014.382-.145.683-.24.845-.095.163-.228.35-.357.53l-6.616 9.262a1 1 0 0 1-1.805-.713l.849-6.368H11.02c-.22 0-.45 0-.638-.017-.186-.017-.525-.062-.827-.296a1.5 1.5 0 0 1-.582-1.131c-.015-.382.145-.683.24-.845.095-.163.228-.35.357-.53l.02-.027 6.596-9.235a1 1 0 0 1 1.182-.349ZM11.443 12.5H16a1 1 0 0 1 .991 1.132l-.469 3.516 4.035-5.648H16a1 1 0 0 1-.991-1.132l.469-3.516-4.035 5.648ZM3 6.5a1 1 0 0 1 1-1h5a1 1 0 0 1 0 2H4a1 1 0 0 1-1-1ZM1 12a1 1 0 0 1 1-1h4.5a1 1 0 1 1 0 2H2a1 1 0 0 1-1-1Zm1.5 5.5a1 1 0 0 1 1-1H9a1 1 0 1 1 0 2H3.5a1 1 0 0 1-1-1Z"/>
    </symbol>
</svg>