<svg width="175" height="22" viewBox="0 0 175 22" fill="none" xmlns="http://www.w3.org/2000/svg">
    <path d="M55.997 1.183c-.558-.223-1.192-.037-1.601.41l-9.648 11.398-9.684-11.398a1.384 1.384 0 0 0-1.564-.41c-.559.224-.932.745-.932 1.341v16.948a1.416 1.416 0 0 0 2.831 0V6.398l5.736 6.78 3.576 4.096 2.496-2.83 6.816-8.046v13.074a1.415 1.415 0 1 0 2.831 0V2.524a1.26 1.26 0 0 0-.857-1.34ZM12.377 1.941c-.396-.819-.971-.991-1.384-.991-.412 0-.987.171-1.382.979L1.032 19.09c-.116.22-.175.453-.175.691 0 .394.164.749.475 1.025.299.267.647.402 1.036.402.553 0 1-.282 1.259-.795l2.498-4.99.068.001h9.612l.069-.001 2.497 4.991c.258.512.71.794 1.272.794.377 0 .72-.133 1.02-.396a1.332 1.332 0 0 0 .296-1.693L12.377 1.941Zm2.035 10.589h-6.84l3.426-6.846 3.414 6.846ZM82.454 1.037h-9.278c-.36 0-.691.142-.959.409a1.32 1.32 0 0 0-.408.959v17.349c0 .869.496 1.367 1.36 1.367.865 0 1.361-.498 1.361-1.367v-6.425c.163.056.349.085.557.085h7.359c1.705 0 3.179-.611 4.38-1.817 1.201-1.205 1.81-2.676 1.81-4.371 0-1.704-.609-3.177-1.808-4.378-1.2-1.202-2.672-1.811-4.374-1.811ZM74.53 3.758h7.917c.962 0 1.763.334 2.449 1.021.686.687 1.019 1.49 1.019 2.453 0 .964-.333 1.764-1.019 2.447-.685.683-1.486 1.015-2.449 1.015h-7.359c-.208 0-.395.029-.558.085V3.758ZM145.88 7.226c0-1.704-.609-3.177-1.808-4.378-1.2-1.202-2.671-1.811-4.374-1.811h-9.278c-.36 0-.691.142-.958.409a1.317 1.317 0 0 0-.409.959v17.349c0 .869.496 1.367 1.36 1.367.865 0 1.361-.498 1.361-1.367v-6.425c.163.056.349.085.557.085h4.369l6.897 7.134a1.273 1.273 0 0 0 1.804.031c.506-.49.519-1.297.03-1.803l-5.207-5.386c1.48-.116 2.772-.715 3.846-1.793 1.201-1.205 1.81-2.676 1.81-4.371Zm-14.106-3.468h7.917c.962 0 1.763.334 2.449 1.021.686.687 1.019 1.49 1.019 2.453 0 .964-.333 1.764-1.019 2.447-.685.683-1.486 1.015-2.449 1.015h-7.359c-.208 0-.395.029-.558.085V3.758ZM111.269 3.971h4.107a1.43 1.43 0 0 0 0-2.859H103.023c-.382 0-.716.145-1.006.434-.289.29-.433.625-.433 1.325v16.863c0 .063.144.398.433.688.29.29.624.434 1.006.434h11.758c.007 0 .013-.008.019-.01h.576a1.43 1.43 0 0 0 0-2.859h-4.05c-.055 0-.102.004-.146.01h-6.737v-6.694h6.731c.017.001.033.005.05.005h3.002c.017 0 .033-.004.05-.005h.043c.005 0 .009-.005.013-.006a1.425 1.425 0 0 0 1.324-1.419c0-.74-.565-1.341-1.285-1.414-.013-.008-.025-.02-.039-.02h-9.889V3.971h6.826ZM172.629 17.987h-4.049c-.055 0-.103.004-.146.01h-6.738v-6.694h6.732c.017.001.033.005.05.005h3.002c.017 0 .033-.004.05-.005h.043c.004 0 .008-.005.013-.006a1.424 1.424 0 0 0 1.323-1.419c0-.74-.564-1.341-1.285-1.414-.013-.008-.025-.02-.039-.02h-9.889V3.971h10.933a1.43 1.43 0 1 0 0-2.859h-12.352c-.382 0-.717.145-1.006.434-.289.29-.434.625-.434 1.325v16.863c0 .063.145.398.434.688.289.29.624.434 1.006.434h11.757c.007 0 .013-.008.02-.01h.575a1.43 1.43 0 1 0 0-2.859Z"
          fill="white"/>
</svg>