<svg width="100%" height="100%" viewBox="0 0 24 24" xmlns="http://www.w3.org/2000/svg" fit="" preserveAspectRatio="xMidYMid meet" focusable="false">
    <path d="M11.3014 17.898C11.3807 17.966 11.477 18 11.5904 18H12.4064C12.5197 18 12.6104 17.966 12.6784 17.898C12.7577 17.8187 12.7974 17.7223 12.7974 17.609V9.551C12.7974 9.43767 12.7577 9.347 12.6784 9.279C12.6104 9.19967 12.5197 9.16 12.4064 9.16H11.5904C11.477 9.16 11.3807 9.19967 11.3014 9.279C11.2334 9.347 11.1994 9.43767 11.1994 9.551V17.609C11.1994 17.7223 11.2334 17.8187 11.3014 17.898Z" fill="currentColor"></path>
    <path d="M11.1654 7.409C11.2447 7.477 11.341 7.511 11.4544 7.511H12.5254C12.6387 7.511 12.735 7.477 12.8144 7.409C12.8937 7.32967 12.9334 7.23333 12.9334 7.12V6.202C12.9334 6.08867 12.8937 5.99233 12.8144 5.913C12.735 5.83367 12.6387 5.794 12.5254 5.794H11.4544C11.341 5.794 11.2447 5.83367 11.1654 5.913C11.0974 5.99233 11.0634 6.08867 11.0634 6.202V7.12C11.0634 7.23333 11.0974 7.32967 11.1654 7.409Z" fill="currentColor"></path>
    <path fill-rule="evenodd" clip-rule="evenodd" d="M22 12C22 17.5228 17.5228 22 12 22C6.47715 22 2 17.5228 2 12C2 6.47715 6.47715 2 12 2C17.5228 2 22 6.47715 22 12ZM20.3 12C20.3 16.584 16.584 20.3 12 20.3C7.41604 20.3 3.7 16.584 3.7 12C3.7 7.41604 7.41604 3.7 12 3.7C16.584 3.7 20.3 7.41604 20.3 12Z" fill="currentColor"></path>
</svg>